/* XPM */
static char * zero_xpm[] = {
"64 64 119 2",
"  	c #000000",
". 	c #FFFFFF",
"+ 	c #F6F6F6",
"@ 	c #CDCDCD",
"# 	c #9F9F9F",
"$ 	c #727272",
"% 	c #474747",
"& 	c #222222",
"* 	c #3B3B3B",
"= 	c #5F5F5F",
"- 	c #8D8D8D",
"; 	c #B9B9B9",
"> 	c #E6E6E6",
", 	c #F4F4F4",
"' 	c #A9A9A9",
") 	c #2E2E2E",
"! 	c #7C7C7C",
"~ 	c #DADADA",
"{ 	c #D2D2D2",
"] 	c #454545",
"^ 	c #9C9C9C",
"/ 	c #F9F9F9",
"( 	c #BBBBBB",
"_ 	c #828282",
": 	c #F2F2F2",
"< 	c #FDFDFD",
"[ 	c #F8F8F8",
"} 	c #E2E2E2",
"| 	c #ACACAC",
"1 	c #2A2A2A",
"2 	c #C1C1C1",
"3 	c #1C1C1C",
"4 	c #C7C7C7",
"5 	c #ECECEC",
"6 	c #696969",
"7 	c #737373",
"8 	c #DDDDDD",
"9 	c #0D0D0D",
"0 	c #F3F3F3",
"a 	c #5C5C5C",
"b 	c #989898",
"c 	c #565656",
"d 	c #DFDFDF",
"e 	c #CECECE",
"f 	c #B0B0B0",
"g 	c #979797",
"h 	c #515151",
"i 	c #A7A7A7",
"j 	c #E5E5E5",
"k 	c #BDBDBD",
"l 	c #B6B6B6",
"m 	c #E4E4E4",
"n 	c #717171",
"o 	c #4F4F4F",
"p 	c #FBFBFB",
"q 	c #FEFEFE",
"r 	c #585858",
"s 	c #D5D5D5",
"t 	c #A3A3A3",
"u 	c #969696",
"v 	c #AFAFAF",
"w 	c #CBCBCB",
"x 	c #262626",
"y 	c #FCFCFC",
"z 	c #707070",
"A 	c #757575",
"B 	c #C0C0C0",
"C 	c #E0E0E0",
"D 	c #B8B8B8",
"E 	c #9B9B9B",
"F 	c #C9C9C9",
"G 	c #7D7D7D",
"H 	c #CCCCCC",
"I 	c #B3B3B3",
"J 	c #949494",
"K 	c #D8D8D8",
"L 	c #353535",
"M 	c #A4A4A4",
"N 	c #F5F5F5",
"O 	c #898989",
"P 	c #EBEBEB",
"Q 	c #B7B7B7",
"R 	c #F0F0F0",
"S 	c #E3E3E3",
"T 	c #666666",
"U 	c #BCBCBC",
"V 	c #BEBEBE",
"W 	c #F7F7F7",
"X 	c #D7D7D7",
"Y 	c #5D5D5D",
"Z 	c #F1F1F1",
"` 	c #A5A5A5",
" .	c #B2B2B2",
"..	c #323232",
"+.	c #C8C8C8",
"@.	c #FAFAFA",
"#.	c #A0A0A0",
"$.	c #6E6E6E",
"%.	c #383838",
"&.	c #DCDCDC",
"*.	c #959595",
"=.	c #555555",
"-.	c #5A5A5A",
";.	c #BABABA",
">.	c #D4D4D4",
",.	c #B5B5B5",
"'.	c #4D4D4D",
").	c #999999",
"!.	c #A1A1A1",
"~.	c #EDEDED",
"{.	c #6A6A6A",
"].	c #848484",
"^.	c #D3D3D3",
"/.	c #AEAEAE",
"(.	c #424242",
"_.	c #A8A8A8",
":.	c #7A7A7A",
"<.	c #9E9E9E",
"[.	c #8C8C8C",
"                                                                                                                                ",
"                                                                                                                                ",
"                                                                                                                                ",
"                                                                                                                                ",
"                                                                                                                                ",
"                                                                                                                                ",
"            . . . . . . . . . . . . . . . . . . . . . . . . . . . . . . . . . . . . . . . . . . . . . . . . . . . .             ",
"            . . . . . . . . . . . . . . . . . . . . . . . . . . . . . . . . . . . . . . . . . . . . . . . . . . . .             ",
"            . . . . . . . . . . . . . . . . . . . . . + @ # $ % & * = - ; > . . . . . . . . . . . . . . . . . . . .             ",
"            . . . . . . . . . . . . . . . . . . . , ' )                     ! ~ . . . . . . . . . . . . . . . . . .             ",
"            . . . . . . . . . . . . . . . . . . { ]                             ^ / . . . . . . . . . . . . . . . .             ",
"            . . . . . . . . . . . . . . . . . (           _ { : < [ } | 1         $ , . . . . . . . . . . . . . . .             ",
"            . . . . . . . . . . . . . . . . 2         3 4 . . . . . . . 5 6         7 [ . . . . . . . . . . . . . .             ",
"            . . . . . . . . . . . . . . . 8 9         @ . . . . . . . . . 0 a         b . . . . . . . . . . . . . .             ",
"            . . . . . . . . . . . . . . [ c         # . . . . . . . . . . . d           e . . . . . . . . . . . . .             ",
"            . . . . . . . . . . . . . . f         ) 0 . . . . . . . . . . . . g         h [ . . . . . . . . . . . .             ",
"            . . . . . . . . . . . . . , )         i . . . . . . . . . . . . . j           k . . . . . . . . . . . .             ",
"            . . . . . . . . . . . . . l           m . . . . . . . . . . . . . . n         o p . . . . . . . . . . .             ",
"            . . . . . . . . . . . . q c         r . . . . . . . . . . . . . . . ;           s . . . . . . . . . . .             ",
"            . . . . . . . . . . . . 8           t . . . . . . . . . . . . . . . }           u . . . . . . . . . . .             ",
"            . . . . . . . . . . . . v           w . . . . . . . . . . . . . . . p x         * y . . . . . . . . . .             ",
"            . . . . . . . . . . . . z           j . . . . . . . . . . . . . . . . A           d . . . . . . . . . .             ",
"            . . . . . . . . . . . [ 9           / . . . . . . . . . . . . . . . . #           B . . . . . . . . . .             ",
"            . . . . . . . . . . . C           h . . . . . . . . . . . . . . . . . D           E . . . . . . . . . .             ",
"            . . . . . . . . . . . F           G . . . . . . . . . . . . . . . . . H           $ . . . . . . . . . .             ",
"            . . . . . . . . . . . I           J . . . . . . . . . . . . . . . . . K           L . . . . . . . . . .             ",
"            . . . . . . . . . . . ^           M . . . . . . . . . . . . . . . . . m             N . . . . . . . . .             ",
"            . . . . . . . . . . . O           v . . . . . . . . . . . . . . . . . P             5 . . . . . . . . .             ",
"            . . . . . . . . . . . A           Q . . . . . . . . . . . . . . . . . R             S . . . . . . . . .             ",
"            . . . . . . . . . . . T           U . . . . . . . . . . . . . . . . . ,             8 . . . . . . . . .             ",
"            . . . . . . . . . . . =           V . . . . . . . . . . . . . . . . . +             ~ . . . . . . . . .             ",
"            . . . . . . . . . . . r           B . . . . . . . . . . . . . . . . . W             X . . . . . . . . .             ",
"            . . . . . . . . . . . Y           V . . . . . . . . . . . . . . . . . +             ~ . . . . . . . . .             ",
"            . . . . . . . . . . . T           k . . . . . . . . . . . . . . . . . ,             8 . . . . . . . . .             ",
"            . . . . . . . . . . . A           Q . . . . . . . . . . . . . . . . . Z             S . . . . . . . . .             ",
"            . . . . . . . . . . . O           v . . . . . . . . . . . . . . . . . P             5 . . . . . . . . .             ",
"            . . . . . . . . . . . E           ` . . . . . . . . . . . . . . . . . m             N . . . . . . . . .             ",
"            . . . . . . . . . . .  .          J . . . . . . . . . . . . . . . . . K           ... . . . . . . . . .             ",
"            . . . . . . . . . . . +.          G . . . . . . . . . . . . . . . . . H           n . . . . . . . . . .             ",
"            . . . . . . . . . . . d           h . . . . . . . . . . . . . . . . . ;           E . . . . . . . . . .             ",
"            . . . . . . . . . . . [ 9           @.. . . . . . . . . . . . . . . . #.          B . . . . . . . . . .             ",
"            . . . . . . . . . . . . $.          j . . . . . . . . . . . . . . . . A           d . . . . . . . . . .             ",
"            . . . . . . . . . . . . v           w . . . . . . . . . . . . . . . y x         %.y . . . . . . . . . .             ",
"            . . . . . . . . . . . . &.          t . . . . . . . . . . . . . . . }           *.. . . . . . . . . . .             ",
"            . . . . . . . . . . . . < =.        -.. . . . . . . . . . . . . . . ;.          >.. . . . . . . . . . .             ",
"            . . . . . . . . . . . . . ,.          j . . . . . . . . . . . . . . $         '.p . . . . . . . . . . .             ",
"            . . . . . . . . . . . . . 0 1         ' . . . . . . . . . . . . . >           k . . . . . . . . . . . .             ",
"            . . . . . . . . . . . . . . f         ..0 . . . . . . . . . . . . ).        h [ . . . . . . . . . . . .             ",
"            . . . . . . . . . . . . . . [ =.        !.. . . . . . . . . . . C           e . . . . . . . . . . . . .             ",
"            . . . . . . . . . . . . . . . 8 9         e . . . . . . . . . 0 Y         g . . . . . . . . . . . . . .             ",
"            . . . . . . . . . . . . . . . . B         3 +.. . . . . . . ~.{.        7 [ . . . . . . . . . . . . . .             ",
"            . . . . . . . . . . . . . . . . . (           ].^.0 < / S /.)         $ , . . . . . . . . . . . . . . .             ",
"            . . . . . . . . . . . . . . . . . . { (.                            E / . . . . . . . . . . . . . . . .             ",
"            . . . . . . . . . . . . . . . . . . . , _.)                     :.~ . . . . . . . . . . . . . . . . . .             ",
"            . . . . . . . . . . . . . . . . . . . . . N H <.n ] 3 L a [.; j . . . . . . . . . . . . . . . . . . . .             ",
"            . . . . . . . . . . . . . . . . . . . . . . . . . . . . . . . . . . . . . . . . . . . . . . . . . . . .             ",
"            . . . . . . . . . . . . . . . . . . . . . . . . . . . . . . . . . . . . . . . . . . . . . . . . . . . .             ",
"            . . . . . . . . . . . . . . . . . . . . . . . . . . . . . . . . . . . . . . . . . . . . . . . . . . . .             ",
"                                                                                                                                ",
"                                                                                                                                ",
"                                                                                                                                ",
"                                                                                                                                ",
"                                                                                                                                ",
"                                                                                                                                "};
