/* XPM */
static char * one_xpm[] = {
"64 64 35 1",
" 	c #000000",
".	c #FFFFFF",
"+	c #D9D9D9",
"@	c #5D5D5D",
"#	c #848484",
"$	c #F4F4F4",
"%	c #9B9B9B",
"&	c #CBCBCB",
"*	c #454545",
"=	c #EDEDED",
"-	c #858585",
";	c #FCFCFC",
">	c #BCBCBC",
",	c #2A2A2A",
"'	c #E3E3E3",
")	c #707070",
"!	c #6D6D6D",
"~	c #B4B4B4",
"{	c #F8F8F8",
"]	c #AAAAAA",
"^	c #0D0D0D",
"/	c #222222",
"(	c #B7B7B7",
"_	c #D8D8D8",
":	c #C5C5C5",
"<	c #7C7C7C",
"[	c #E9E9E9",
"}	c #353535",
"|	c #C2C2C2",
"1	c #FEFEFE",
"2	c #8A8A8A",
"3	c #EEEEEE",
"4	c #CFCFCF",
"5	c #CCCCCC",
"6	c #A1A1A1",
"                                                                ",
"                                                                ",
"                                                                ",
"                                                                ",
"                                                                ",
"                                                                ",
"      ....................................................      ",
"      ....................................................      ",
"      ........................+@   #......................      ",
"      ......................$%     #......................      ",
"      .....................&*      #......................      ",
"      ...................=-        #......................      ",
"      .................;>,         #......................      ",
"      ................')    !~     #......................      ",
"      ..............{]^   /(;_     #......................      ",
"      ..............:    <[.._     #......................      ",
"      ..............:  }|1..._     #......................      ",
"      ..............: 23....._     #......................      ",
"      ..............45......._     #......................      ",
"      ......................._     #......................      ",
"      ......................._     #......................      ",
"      ......................._     #......................      ",
"      ......................._     #......................      ",
"      ......................._     #......................      ",
"      ......................._     #......................      ",
"      ......................._     #......................      ",
"      ......................._     #......................      ",
"      ......................._     #......................      ",
"      ......................._     #......................      ",
"      ......................._     #......................      ",
"      ......................._     #......................      ",
"      ......................._     #......................      ",
"      ......................._     #......................      ",
"      ......................._     #......................      ",
"      ......................._     #......................      ",
"      ......................._     #......................      ",
"      ......................._     #......................      ",
"      ......................._     #......................      ",
"      ......................._     #......................      ",
"      ......................._     #......................      ",
"      ......................._     #......................      ",
"      ......................._     #......................      ",
"      ......................._     #......................      ",
"      ......................._     #......................      ",
"      ......................._     #......................      ",
"      ......................._     #......................      ",
"      ......................._     #......................      ",
"      ......................._     #......................      ",
"      ......................._     #......................      ",
"      ......................._     #......................      ",
"      ......................._     #......................      ",
"      ...............[                     6..............      ",
"      ...............[                     6..............      ",
"      ...............[                     6..............      ",
"      ....................................................      ",
"      ....................................................      ",
"      ....................................................      ",
"      ....................................................      ",
"                                                                ",
"                                                                ",
"                                                                ",
"                                                                ",
"                                                                ",
"                                                                "};
