/* XPM */
static char * two_xpm[] = {
"64 64 104 2",
"  	c #000000",
". 	c #FFFFFF",
"+ 	c #F6F6F6",
"@ 	c #D8D8D8",
"# 	c #BEBEBE",
"$ 	c #9D9D9D",
"% 	c #777777",
"& 	c #626262",
"* 	c #454545",
"= 	c #222222",
"- 	c #474747",
"; 	c #636363",
"> 	c #797979",
", 	c #A0A0A0",
"' 	c #C6C6C6",
") 	c #E5E5E5",
"! 	c #EBEBEB",
"~ 	c #BDBDBD",
"{ 	c #808080",
"] 	c #161616",
"^ 	c #656565",
"/ 	c #C0C0C0",
"( 	c #FBFBFB",
"_ 	c #CECECE",
": 	c #818181",
"< 	c #C3C3C3",
"[ 	c #555555",
"} 	c #B4B4B4",
"| 	c #D9D9D9",
"1 	c #F0F0F0",
"2 	c #F8F8F8",
"3 	c #FDFDFD",
"4 	c #F5F5F5",
"5 	c #E7E7E7",
"6 	c #C2C2C2",
"7 	c #949494",
"8 	c #FAFAFA",
"9 	c #2A2A2A",
"0 	c #BFBFBF",
"a 	c #D2D2D2",
"b 	c #3D3D3D",
"c 	c #848484",
"d 	c #DDDDDD",
"e 	c #E9E9E9",
"f 	c #494949",
"g 	c #A6A6A6",
"h 	c #C5C5C5",
"i 	c #DFDFDF",
"j 	c #696969",
"k 	c #8E8E8E",
"l 	c #888888",
"m 	c #DBDBDB",
"n 	c #CDCDCD",
"o 	c #B0B0B0",
"p 	c #8D8D8D",
"q 	c #9B9B9B",
"r 	c #919191",
"s 	c #A3A3A3",
"t 	c #7F7F7F",
"u 	c #404040",
"v 	c #E2E2E2",
"w 	c #EEEEEE",
"x 	c #5A5A5A",
"y 	c #FEFEFE",
"z 	c #C4C4C4",
"A 	c #BABABA",
"B 	c #424242",
"C 	c #E6E6E6",
"D 	c #959595",
"E 	c #737373",
"F 	c #FCFCFC",
"G 	c #F9F9F9",
"H 	c #686868",
"I 	c #A2A2A2",
"J 	c #CBCBCB",
"K 	c #DEDEDE",
"L 	c #E8E8E8",
"M 	c #606060",
"N 	c #4D4D4D",
"O 	c #5C5C5C",
"P 	c #EFEFEF",
"Q 	c #EDEDED",
"R 	c #5F5F5F",
"S 	c #565656",
"T 	c #F2F2F2",
"U 	c #4F4F4F",
"V 	c #F4F4F4",
"W 	c #6E6E6E",
"X 	c #383838",
"Y 	c #F7F7F7",
"Z 	c #2E2E2E",
"` 	c #D1D1D1",
" .	c #7E7E7E",
"..	c #262626",
"+.	c #DADADA",
"@.	c #828282",
"#.	c #1C1C1C",
"$.	c #D5D5D5",
"%.	c #878787",
"&.	c #0D0D0D",
"*.	c #8C8C8C",
"=.	c #969696",
"-.	c #A7A7A7",
";.	c #7C7C7C",
"                                                                                                                                ",
"                                                                                                                                ",
"                                                                                                                                ",
"                                                                                                                                ",
"                                                                                                                                ",
"                                                                                                                                ",
"            . . . . . . . . . . . . . . . . . . . . . . . . . . . . . . . . . . . . . . . . . . . . . . . . . . . .             ",
"            . . . . . . . . . . . . . . . . . . . . . . . . . . . . . . . . . . . . . . . . . . . . . . . . . . . .             ",
"            . . . . . . . . . . . . . . . . . + @ # $ % & * = - ; > , ' ) . . . . . . . . . . . . . . . . . . . . .             ",
"            . . . . . . . . . . . . . . ! ~ { ]                           ^ / + . . . . . . . . . . . . . . . . . .             ",
"            . . . . . . . . . . . ( _ :                                       - _ . . . . . . . . . . . . . . . . .             ",
"            . . . . . . . . . . . <               [ } | 1 2 3 4 5 6 %             7 8 . . . . . . . . . . . . . . .             ",
"            . . . . . . . . . . . <           9 0 3 . . . . . . . . . a b           c ( . . . . . . . . . . . . . .             ",
"            . . . . . . . . . . . <         9 d . . . . . . . . . . . . e f           g . . . . . . . . . . . . . .             ",
"            . . . . . . . . . . . <         h . . . . . . . . . . . . . . |             i . . . . . . . . . . . . .             ",
"            . . . . . . . . . . . <       j 3 . . . . . . . . . . . . . . . k           l . . . . . . . . . . . . .             ",
"            . . . . . . . . . . . <       ~ . . . . . . . . . . . . . . . . m             1 . . . . . . . . . . . .             ",
"            . . . . . . . . . . . <       5 . . . . . . . . . . . . . . . . ( =           n . . . . . . . . . . . .             ",
"            . . . . . . . . . . . <     ] ( . . . . . . . . . . . . . . . . . %           o . . . . . . . . . . . .             ",
"            . . . . . . . . . . . . . . . . . . . . . . . . . . . . . . . . . p           q . . . . . . . . . . . .             ",
"            . . . . . . . . . . . . . . . . . . . . . . . . . . . . . . . . . q           7 . . . . . . . . . . . .             ",
"            . . . . . . . . . . . . . . . . . . . . . . . . . . . . . . . . . r           s . . . . . . . . . . . .             ",
"            . . . . . . . . . . . . . . . . . . . . . . . . . . . . . . . . . t           ~ . . . . . . . . . . . .             ",
"            . . . . . . . . . . . . . . . . . . . . . . . . . . . . . . . . . u           v . . . . . . . . . . . .             ",
"            . . . . . . . . . . . . . . . . . . . . . . . . . . . . . . . . w           x y . . . . . . . . . . . .             ",
"            . . . . . . . . . . . . . . . . . . . . . . . . . . . . . . . . z           A . . . . . . . . . . . . .             ",
"            . . . . . . . . . . . . . . . . . . . . . . . . . . . . . . . . :         B + . . . . . . . . . . . . .             ",
"            . . . . . . . . . . . . . . . . . . . . . . . . . . . . . . . C           0 . . . . . . . . . . . . . .             ",
"            . . . . . . . . . . . . . . . . . . . . . . . . . . . . . . . D         E F . . . . . . . . . . . . . .             ",
"            . . . . . . . . . . . . . . . . . . . . . . . . . . . . . . d         = C . . . . . . . . . . . . . . .             ",
"            . . . . . . . . . . . . . . . . . . . . . . . . . . . . . G H         h . . . . . . . . . . . . . . . .             ",
"            . . . . . . . . . . . . . . . . . . . . . . . . . . . . . I         q . . . . . . . . . . . . . . . . .             ",
"            . . . . . . . . . . . . . . . . . . . . . . . . . . . . J         { ( . . . . . . . . . . . . . . . . .             ",
"            . . . . . . . . . . . . . . . . . . . . . . . . . . . K =       H + . . . . . . . . . . . . . . . . . .             ",
"            . . . . . . . . . . . . . . . . . . . . . . . . . . L *       M 1 . . . . . . . . . . . . . . . . . . .             ",
"            . . . . . . . . . . . . . . . . . . . . . . . . . ! N       O P . . . . . . . . . . . . . . . . . . . .             ",
"            . . . . . . . . . . . . . . . . . . . . . . . . Q [       M w . . . . . . . . . . . . . . . . . . . . .             ",
"            . . . . . . . . . . . . . . . . . . . . . . . P x       R 1 . . . . . . . . . . . . . . . . . . . . . .             ",
"            . . . . . . . . . . . . . . . . . . . . . . 1 M       S w . . . . . . . . . . . . . . . . . . . . . . .             ",
"            . . . . . . . . . . . . . . . . . . . . . T ^       U ! . . . . . . . . . . . . . . . . . . . . . . . .             ",
"            . . . . . . . . . . . . . . . . . . . . V j       - L . . . . . . . . . . . . . . . . . . . . . . . . .             ",
"            . . . . . . . . . . . . . . . . . . . 4 W       u ) . . . . . . . . . . . . . . . . . . . . . . . . . .             ",
"            . . . . . . . . . . . . . . . . . . + E       X v . . . . . . . . . . . . . . . . . . . . . . . . . . .             ",
"            . . . . . . . . . . . . . . . . . Y >       Z K . . . . . . . . . . . . e       ` . . . . . . . . . . .             ",
"            . . . . . . . . . . . . . . . . G  .      ..+.. . . . . . . . . . . . . e       ` . . . . . . . . . . .             ",
"            . . . . . . . . . . . . . . . 8 @.      #.$.. . . . . . . . . . . . . . e       ` . . . . . . . . . . .             ",
"            . . . . . . . . . . . . . . ( %.      &.` . . . . . . . . . . . . . . . e       ` . . . . . . . . . . .             ",
"            . . . . . . . . . . . . . ( *.        J . . . . . . . . . . . . . . . . e       ` . . . . . . . . . . .             ",
"            . . . . . . . . . . . . F r         ' . . . . . . . . . . . . . . . . . e       ` . . . . . . . . . . .             ",
"            . . . . . . . . . . . 3 =.                                                      ` . . . . . . . . . . .             ",
"            . . . . . . . . . . . -.                                                        ` . . . . . . . . . . .             ",
"            . . . . . . . . . . . ;.                                                        ` . . . . . . . . . . .             ",
"            . . . . . . . . . . . ;.                                                        ` . . . . . . . . . . .             ",
"            . . . . . . . . . . . ;.                                                        ` . . . . . . . . . . .             ",
"            . . . . . . . . . . . . . . . . . . . . . . . . . . . . . . . . . . . . . . . . . . . . . . . . . . . .             ",
"            . . . . . . . . . . . . . . . . . . . . . . . . . . . . . . . . . . . . . . . . . . . . . . . . . . . .             ",
"            . . . . . . . . . . . . . . . . . . . . . . . . . . . . . . . . . . . . . . . . . . . . . . . . . . . .             ",
"            . . . . . . . . . . . . . . . . . . . . . . . . . . . . . . . . . . . . . . . . . . . . . . . . . . . .             ",
"                                                                                                                                ",
"                                                                                                                                ",
"                                                                                                                                ",
"                                                                                                                                ",
"                                                                                                                                ",
"                                                                                                                                "};
