/* XPM */
static char * three_xpm[] = {
"64 64 121 2",
"  	c #000000",
". 	c #FFFFFF",
"+ 	c #EFEFEF",
"@ 	c #D2D2D2",
"# 	c #B5B5B5",
"$ 	c #909090",
"% 	c #6E6E6E",
"& 	c #555555",
"* 	c #2E2E2E",
"= 	c #323232",
"- 	c #6C6C6C",
"; 	c #8D8D8D",
"> 	c #B4B4B4",
", 	c #D4D4D4",
"' 	c #F8F8F8",
") 	c #FEFEFE",
"! 	c #DDDDDD",
"~ 	c #AFAFAF",
"{ 	c #696969",
"] 	c #9E9E9E",
"^ 	c #E5E5E5",
"/ 	c #EBEBEB",
"( 	c #565656",
"_ 	c #0D0D0D",
": 	c #A8A8A8",
"< 	c #F7F7F7",
"[ 	c #A3A3A3",
"} 	c #D3D3D3",
"| 	c #EEEEEE",
"1 	c #FDFDFD",
"2 	c #F6F6F6",
"3 	c #EAEAEA",
"4 	c #CACACA",
"5 	c #898989",
"6 	c #717171",
"7 	c #F4F4F4",
"8 	c #949494",
"9 	c #E1E1E1",
"0 	c #5C5C5C",
"a 	c #F9F9F9",
"b 	c #A4A4A4",
"c 	c #F2F2F2",
"d 	c #AEAEAE",
"e 	c #707070",
"f 	c #161616",
"g 	c #D8D8D8",
"h 	c #7F7F7F",
"i 	c #C0C0C0",
"j 	c #4B4B4B",
"k 	c #BEBEBE",
"l 	c #878787",
"m 	c #9B9B9B",
"n 	c #636363",
"o 	c #BBBBBB",
"p 	c #E8E8E8",
"q 	c #454545",
"r 	c #6A6A6A",
"s 	c #CECECE",
"t 	c #9F9F9F",
"u 	c #3B3B3B",
"v 	c #666666",
"w 	c #DADADA",
"x 	c #B9B9B9",
"y 	c #BDBDBD",
"z 	c #ECECEC",
"A 	c #C5C5C5",
"B 	c #F0F0F0",
"C 	c #828282",
"D 	c #7E7E7E",
"E 	c #E7E7E7",
"F 	c #E0E0E0",
"G 	c #424242",
"H 	c #9D9D9D",
"I 	c #767676",
"J 	c #CCCCCC",
"K 	c #DEDEDE",
"L 	c #494949",
"M 	c #C8C8C8",
"N 	c #7C7C7C",
"O 	c #FAFAFA",
"P 	c #FCFCFC",
"Q 	c #A6A6A6",
"R 	c #808080",
"S 	c #FBFBFB",
"T 	c #A7A7A7",
"U 	c #404040",
"V 	c #B3B3B3",
"W 	c #858585",
"X 	c #4F4F4F",
"Y 	c #8F8F8F",
"Z 	c #A1A1A1",
"` 	c #A0A0A0",
" .	c #8C8C8C",
"..	c #777777",
"+.	c #AAAAAA",
"@.	c #DCDCDC",
"#.	c #D7D7D7",
"$.	c #686868",
"%.	c #C9C9C9",
"&.	c #D5D5D5",
"*.	c #606060",
"=.	c #888888",
"-.	c #626262",
";.	c #A9A9A9",
">.	c #BCBCBC",
",.	c #5A5A5A",
"'.	c #979797",
").	c #8A8A8A",
"!.	c #DBDBDB",
"~.	c #9C9C9C",
"{.	c #222222",
"].	c #939393",
"^.	c #C4C4C4",
"/.	c #D0D0D0",
"(.	c #868686",
"_.	c #383838",
":.	c #1C1C1C",
"<.	c #737373",
"[.	c #929292",
"}.	c #B8B8B8",
"|.	c #D6D6D6",
"                                                                                                                                ",
"                                                                                                                                ",
"                                                                                                                                ",
"                                                                                                                                ",
"                                                                                                                                ",
"                                                                                                                                ",
"            . . . . . . . . . . . . . . . . . . . . . . . . . . . . . . . . . . . . . . . . . . . . . . . . . . . .             ",
"            . . . . . . . . . . . . . . . . . . . . . . . . . . . . . . . . . . . . . . . . . . . . . . . . . . . .             ",
"            . . . . . . . . . . . . . . . . . . . + @ # $ % & * = & - ; > , ' . . . . . . . . . . . . . . . . . . .             ",
"            . . . . . . . . . . . . . . . ) ! ~ {                           = ] ^ . . . . . . . . . . . . . . . . .             ",
"            . . . . . . . . . . . . . / > (                                     _ : < . . . . . . . . . . . . . . .             ",
"            . . . . . . . . . . . . . *             * [ } | ' 1 2 3 4 5             6 7 . . . . . . . . . . . . . .             ",
"            . . . . . . . . . . . . . *           8 7 . . . . . . . . . 9 0           - a . . . . . . . . . . . . .             ",
"            . . . . . . . . . . . . . *         b . . . . . . . . . . . . c (           d . . . . . . . . . . . . .             ",
"            . . . . . . . . . . . . . *       e 1 . . . . . . . . . . . . . !           f + . . . . . . . . . . . .             ",
"            . . . . . . . . . . . . . *       g . . . . . . . . . . . . . . . h           i . . . . . . . . . . . .             ",
"            . . . . . . . . . . . . . *     j 1 . . . . . . . . . . . . . . . k           l . . . . . . . . . . . .             ",
"            . . . . . . . . . . . . . *     m . . . . . . . . . . . . . . . . !           n . . . . . . . . . . . .             ",
"            . . . . . . . . . . . . . *     o . . . . . . . . . . . . . . . . p           = . . . . . . . . . . . .             ",
"            . . . . . . . . . . . . . . . . . . . . . . . . . . . . . . . . . /           q . . . . . . . . . . . .             ",
"            . . . . . . . . . . . . . . . . . . . . . . . . . . . . . . . . . 9           r . . . . . . . . . . . .             ",
"            . . . . . . . . . . . . . . . . . . . . . . . . . . . . . . . . . s           [ . . . . . . . . . . . .             ",
"            . . . . . . . . . . . . . . . . . . . . . . . . . . . . . . . . . t           , . . . . . . . . . . . .             ",
"            . . . . . . . . . . . . . . . . . . . . . . . . . . . . . . . . 7 u         v 1 . . . . . . . . . . . .             ",
"            . . . . . . . . . . . . . . . . . . . . . . . . . . . . . . . . [         _ w . . . . . . . . . . . . .             ",
"            . . . . . . . . . . . . . . . . . . . . . . . . . . . . . . . x           y . . . . . . . . . . . . . .             ",
"            . . . . . . . . . . . . . . . . . . . . . . . . . . . . . z ;         f A . . . . . . . . . . . . . . .             ",
"            . . . . . . . . . . . . . . . . . . . . . . . ) < B ! i C           D E . . . . . . . . . . . . . . . .             ",
"            . . . . . . . . . . . . . . . . . . . . . F                   G H F . . . . . . . . . . . . . . . . . .             ",
"            . . . . . . . . . . . . . . . . . . . . . F                 I J z . . . . . . . . . . . . . . . . . . .             ",
"            . . . . . . . . . . . . . . . . . . . . . F                       e i 2 . . . . . . . . . . . . . . . .             ",
"            . . . . . . . . . . . . . . . . . . . . . . . . . ' + K o D           L M ) . . . . . . . . . . . . . .             ",
"            . . . . . . . . . . . . . . . . . . . . . . . . . . . . . . F N           8 O . . . . . . . . . . . . .             ",
"            . . . . . . . . . . . . . . . . . . . . . . . . . . . . . . . P Q           R S . . . . . . . . . . . .             ",
"            . . . . . . . . . . . . . . . . . . . . . . . . . . . . . . . . ) $           T . . . . . . . . . . . .             ",
"            . . . . . . . . . . . . . . . . . . . . . . . . . . . . . . . . . 2 U           ! . . . . . . . . . . .             ",
"            . . . . . . . . . . . . . . . . . . . . . . . . . . . . . . . . . . V           W . . . . . . . . . . .             ",
"            . . . . . . . . . . . . . . . . . . . . . . . . . . . . . . . . . . z             z . . . . . . . . . .             ",
"            . . . . . . . . . . . . . . . . . . . . . . . . . . . . . . . . . . . X           M . . . . . . . . . .             ",
"            . . . . . . . . . . . . . . . . . . . . . . . . . . . . . . . . . . . Y           Z . . . . . . . . . .             ",
"            . . . . . . . . . . . . . . . . . . . . . . . . . . . . . . . . . . . `            .. . . . . . . . . .             ",
"            . . . . . . . . . . . . . . . . . . . . . . . . . . . . . . . . . . . d           ... . . . . . . . . .             ",
"            . . . . . . . . . . . . . . . . . . . . . . . . . . . . . . . . . . . +.          ... . . . . . . . . .             ",
"            . . . . . . . . . . . @.      3 . . . . . . . . . . . . . . . . . . . m           l . . . . . . . . . .             ",
"            . . . . . . . . . . . @.      #.. . . . . . . . . . . . . . . . . . . ..          b . . . . . . . . . .             ",
"            . . . . . . . . . . . @.      # . . . . . . . . . . . . . . . . . . 2 _           M . . . . . . . . . .             ",
"            . . . . . . . . . . . @.      $.. . . . . . . . . . . . . . . . . . %.            | . . . . . . . . . .             ",
"            . . . . . . . . . . . @.        &.. . . . . . . . . . . . . . . . P *.          =.. . . . . . . . . . .             ",
"            . . . . . . . . . . . @.        -.2 . . . . . . . . . . . . . . . ;.            F . . . . . . . . . . .             ",
"            . . . . . . . . . . . @.          D < . . . . . . . . . . . . . >.            +.. . . . . . . . . . . .             ",
"            . . . . . . . . . . . @.            ,.g . . . . . . . . . . + '.            ).P . . . . . . . . . . . .             ",
"            . . . . . . . . . . . @.                $.x !.B ' 1 2 z s ~.{.            ` S . . . . . . . . . . . . .             ",
"            . . . . . . . . . . . 1 g ].f                                         *.w . . . . . . . . . . . . . . .             ",
"            . . . . . . . . . . . . . . c ^.; *                             _ 5 /.S . . . . . . . . . . . . . . . .             ",
"            . . . . . . . . . . . . . . . . . S K A ;.(.r ( _.:.q *.<.[.}.|.c . . . . . . . . . . . . . . . . . . .             ",
"            . . . . . . . . . . . . . . . . . . . . . . . . . . . . . . . . . . . . . . . . . . . . . . . . . . . .             ",
"            . . . . . . . . . . . . . . . . . . . . . . . . . . . . . . . . . . . . . . . . . . . . . . . . . . . .             ",
"            . . . . . . . . . . . . . . . . . . . . . . . . . . . . . . . . . . . . . . . . . . . . . . . . . . . .             ",
"                                                                                                                                ",
"                                                                                                                                ",
"                                                                                                                                ",
"                                                                                                                                ",
"                                                                                                                                ",
"                                                                                                                                "};
