/* XPM */
static char * four_xpm[] = {
"64 64 71 1",
" 	c #000000",
".	c #FFFFFF",
"+	c #A5A5A5",
"@	c #949494",
"#	c #DEDEDE",
"$	c #FBFBFB",
"%	c #656565",
"&	c #B2B2B2",
"*	c #E6E6E6",
"=	c #161616",
"-	c #FDFDFD",
";	c #757575",
">	c #BDBDBD",
",	c #2A2A2A",
"'	c #ECECEC",
")	c #B7B7B7",
"!	c #FEFEFE",
"~	c #838383",
"{	c #BBBBBB",
"]	c #D1D1D1",
"^	c #C7C7C7",
"/	c #6E6E6E",
"(	c #FCFCFC",
"_	c #F1F1F1",
":	c #3D3D3D",
"<	c #0D0D0D",
"[	c #E2E2E2",
"}	c #919191",
"|	c #AAAAAA",
"1	c #585858",
"2	c #F8F8F8",
"3	c #F6F6F6",
"4	c #4D4D4D",
"5	c #D6D6D6",
"6	c #9F9F9F",
"7	c #969696",
"8	c #DADADA",
"9	c #404040",
"0	c #F2F2F2",
"a	c #F9F9F9",
"b	c #5D5D5D",
"c	c #C8C8C8",
"d	c #ACACAC",
"e	c #828282",
"f	c #E3E3E3",
"g	c #262626",
"h	c #EBEBEB",
"i	c #6D6D6D",
"j	c #B9B9B9",
"k	c #6C6C6C",
"l	c #E9E9E9",
"m	c #222222",
"n	c #E1E1E1",
"o	c #7C7C7C",
"p	c #A8A8A8",
"q	c #C2C2C2",
"r	c #565656",
"s	c #EFEFEF",
"t	c #353535",
"u	c #D5D5D5",
"v	c #8A8A8A",
"w	c #959595",
"x	c #CCCCCC",
"y	c #F4F4F4",
"z	c #474747",
"A	c #989898",
"B	c #808080",
"C	c #EAEAEA",
"D	c #B8B8B8",
"E	c #A4A4A4",
"F	c #2E2E2E",
"                                                                ",
"                                                                ",
"                                                                ",
"                                                                ",
"                                                                ",
"                                                                ",
"      ....................................................      ",
"      ....................................................      ",
"      ............................+     @.................      ",
"      ...........................#      @.................      ",
"      ..........................$%      @.................      ",
"      ..........................&       @.................      ",
"      .........................*=       @.................      ",
"      ........................-;        @.................      ",
"      ........................>   ,     @.................      ",
"      .......................',  ,)     @.................      ",
"      ......................!~   {]     @.................      ",
"      ......................^   /(]     @.................      ",
"      ....................._:  <[.]     @.................      ",
"      .....................}   |..]     @.................      ",
"      ....................]   12..]     @.................      ",
"      ...................34   5...]     @.................      ",
"      ...................6   7....]     @.................      ",
"      ..................8   90....]     @.................      ",
"      .................ab   c.....]     @.................      ",
"      .................d   e!.....]     @.................      ",
"      ................f<  gh......]     @.................      ",
"      ...............(i   j.......]     @.................      ",
"      ...............)   k(.......]     @.................      ",
"      ..............lm  <n........]     @.................      ",
"      .............!o   p.........]     @.................      ",
"      .............q   r2.........]     @.................      ",
"      ............st   u..........]     @.................      ",
"      ............v   w...........]     @.................      ",
"      ...........x   :0...........]     @.................      ",
"      ..........yz   ^............]     @.................      ",
"      ..........A   B!............]     @.................      ",
"      .........5   gC.............]     @.................      ",
"      ........$r   D..............]     @.................      ",
"      ........y                                  5........      ",
"      ........y                                  5........      ",
"      ........y                                  5........      ",
"      ............................]     @.................      ",
"      ............................]     @.................      ",
"      ............................]     @.................      ",
"      ............................]     @.................      ",
"      ............................]     @.................      ",
"      ............................]     @.................      ",
"      ............................]     @.................      ",
"      ............................]     @.................      ",
"      ............................]     @.................      ",
"      .....................E                   F..........      ",
"      .....................E                   F..........      ",
"      .....................E                   F..........      ",
"      ....................................................      ",
"      ....................................................      ",
"      ....................................................      ",
"      ....................................................      ",
"                                                                ",
"                                                                ",
"                                                                ",
"                                                                ",
"                                                                ",
"                                                                "};
