/* XPM */
static char * five_xpm[] = {
"64 64 96 2",
"  	c #000000",
". 	c #FFFFFF",
"+ 	c #8C8C8C",
"@ 	c #E9E9E9",
"# 	c #C0C0C0",
"$ 	c #E4E4E4",
"% 	c #B9B9B9",
"& 	c #949494",
"* 	c #686868",
"= 	c #4D4D4D",
"- 	c #262626",
"; 	c #3D3D3D",
"> 	c #626262",
", 	c #797979",
"' 	c #969696",
") 	c #C2C2C2",
"! 	c #E5E5E5",
"~ 	c #FDFDFD",
"{ 	c #BFBFBF",
"] 	c #CDCDCD",
"^ 	c #636363",
"/ 	c #515151",
"( 	c #BEBEBE",
"_ 	c #F7F7F7",
": 	c #2E2E2E",
"< 	c #C5C5C5",
"[ 	c #383838",
"} 	c #9B9B9B",
"| 	c #D4D4D4",
"1 	c #EAEAEA",
"2 	c #F6F6F6",
"3 	c #FCFCFC",
"4 	c #F3F3F3",
"5 	c #E7E7E7",
"6 	c #C3C3C3",
"7 	c #858585",
"8 	c #9A9A9A",
"9 	c #F8F8F8",
"0 	c #ACACAC",
"a 	c #DCDCDC",
"b 	c #777777",
"c 	c #D5D5D5",
"d 	c #F5F5F5",
"e 	c #767676",
"f 	c #8E8E8E",
"g 	c #FEFEFE",
"h 	c #161616",
"i 	c #D7D7D7",
"j 	c #D1D1D1",
"k 	c #424242",
"l 	c #606060",
"m 	c #BBBBBB",
"n 	c #707070",
"o 	c #E3E3E3",
"p 	c #F0F0F0",
"q 	c #FBFBFB",
"r 	c #1C1C1C",
"s 	c #656565",
"t 	c #BDBDBD",
"u 	c #AAAAAA",
"v 	c #898989",
"w 	c #A2A2A2",
"x 	c #888888",
"y 	c #A3A3A3",
"z 	c #FAFAFA",
"A 	c #5F5F5F",
"B 	c #E2E2E2",
"C 	c #0D0D0D",
"D 	c #F4F4F4",
"E 	c #CCCCCC",
"F 	c #5C5C5C",
"G 	c #717171",
"H 	c #CECECE",
"I 	c #404040",
"J 	c #C7C7C7",
"K 	c #474747",
"L 	c #C4C4C4",
"M 	c #222222",
"N 	c #DADADA",
"O 	c #737373",
"P 	c #8B8B8B",
"Q 	c #DBDBDB",
"R 	c #494949",
"S 	c #AFAFAF",
"T 	c #F9F9F9",
"U 	c #E8E8E8",
"V 	c #838383",
"W 	c #CACACA",
"X 	c #DFDFDF",
"Y 	c #6A6A6A",
"Z 	c #EFEFEF",
"` 	c #B6B6B6",
" .	c #5A5A5A",
"..	c #3B3B3B",
"+.	c #696969",
"@.	c #7E7E7E",
"                                                                                                                                ",
"                                                                                                                                ",
"                                                                                                                                ",
"                                                                                                                                ",
"                                                                                                                                ",
"                                                                                                                                ",
"            . . . . . . . . . . . . . . . . . . . . . . . . . . . . . . . . . . . . . . . . . . . . . . . . . . . .             ",
"            . . . . . . . . . . . . . . . . . . . . . . . . . . . . . . . . . . . . . . . . . . . . . . . . . . . .             ",
"            . . . . . . . . . . . . . . . . . . . . . . . . . . . . . . . . . . . . . . . . . . . . . . . . . . . .             ",
"            . . . . . . . . . . . . . . +                                               @ . . . . . . . . . . . . .             ",
"            . . . . . . . . . . . . . . +                                               @ . . . . . . . . . . . . .             ",
"            . . . . . . . . . . . . . . +                                               @ . . . . . . . . . . . . .             ",
"            . . . . . . . . . . . . . . +                                               @ . . . . . . . . . . . . .             ",
"            . . . . . . . . . . . . . . +                                               @ . . . . . . . . . . . . .             ",
"            . . . . . . . . . . . . . . +     # . . . . . . . . . . . . . . . . . . . . . . . . . . . . . . . . . .             ",
"            . . . . . . . . . . . . . . +     # . . . . . . . . . . . . . . . . . . . . . . . . . . . . . . . . . .             ",
"            . . . . . . . . . . . . . . +     # . . . . . . . . . . . . . . . . . . . . . . . . . . . . . . . . . .             ",
"            . . . . . . . . . . . . . . +     # . . . . . . . . . . . . . . . . . . . . . . . . . . . . . . . . . .             ",
"            . . . . . . . . . . . . . . +     # . . . . . . . . . . . . . . . . . . . . . . . . . . . . . . . . . .             ",
"            . . . . . . . . . . . . . . +     # . . . . . . . . . . . . . . . . . . . . . . . . . . . . . . . . . .             ",
"            . . . . . . . . . . . . . . +     # . . . . . . . . . . . . . . . . . . . . . . . . . . . . . . . . . .             ",
"            . . . . . . . . . . . . . . +     # . . . . . . . . . . . . . . . . . . . . . . . . . . . . . . . . . .             ",
"            . . . . . . . . . . . . . . +     # . . . . . . . . . . . . . . . . . . . . . . . . . . . . . . . . . .             ",
"            . . . . . . . . . . . . . . +     # . . . . . . . . . . . . . . . . . . . . . . . . . . . . . . . . . .             ",
"            . . . . . . . . . . . . . . +     # . . . . . . . . . . . . . . . . . . . . . . . . . . . . . . . . . .             ",
"            . . . . . . . . . . . . . . +     # . . $ % & * = - ; > , ' ) ! ~ . . . . . . . . . . . . . . . . . . .             ",
"            . . . . . . . . . . . . . . +     { ] ^                         / ( _ . . . . . . . . . . . . . . . . .             ",
"            . . . . . . . . . . . . . . +     :                                 ; < . . . . . . . . . . . . . . . .             ",
"            . . . . . . . . . . . . . . +           [ } | 1 2 3 4 5 6 7             8 9 . . . . . . . . . . . . . .             ",
"            . . . . . . . . . . . . . . +         0 2 . . . . . . . . . a *           b 9 . . . . . . . . . . . . .             ",
"            . . . . . . . . . . . . . . +     : c . . . . . . . . . . . . d e           f g . . . . . . . . . . . .             ",
"            . . . . . . . . . . . . . . +   h i . . . . . . . . . . . . . . d =           < . . . . . . . . . . . .             ",
"            . . . . . . . . . . . . . . . . . . . . . . . . . . . . . . . . . j           k _ . . . . . . . . . . .             ",
"            . . . . . . . . . . . . . . . . . . . . . . . . . . . . . . . . . g l           # . . . . . . . . . . .             ",
"            . . . . . . . . . . . . . . . . . . . . . . . . . . . . . . . . . . m           n . . . . . . . . . . .             ",
"            . . . . . . . . . . . . . . . . . . . . . . . . . . . . . . . . . . o             p . . . . . . . . . .             ",
"            . . . . . . . . . . . . . . . . . . . . . . . . . . . . . . . . . . q r           | . . . . . . . . . .             ",
"            . . . . . . . . . . . . . . . . . . . . . . . . . . . . . . . . . . . s           t . . . . . . . . . .             ",
"            . . . . . . . . . . . . . . . . . . . . . . . . . . . . . . . . . . . ,           u . . . . . . . . . .             ",
"            . . . . . . . . . . . . . . . . . . . . . . . . . . . . . . . . . . . v           w . . . . . . . . . .             ",
"            . . . . . . . . . . . . . . . . . . . . . . . . . . . . . . . . . . . x           y . . . . . . . . . .             ",
"            . . . . . . . . . . . . . . . . . . . . . . . . . . . . . . . . . . . b           0 . . . . . . . . . .             ",
"            . . . . . . . . . . . . . . . . . . . . . . . . . . . . . . . . . . . >           ( . . . . . . . . . .             ",
"            . . . . . . . . . . . . +     x . . . . . . . . . . . . . . . . . . z h           | . . . . . . . . . .             ",
"            . . . . . . . . . . . . +     A . . . . . . . . . . . . . . . . . . B             p . . . . . . . . . .             ",
"            . . . . . . . . . . . . +     C D . . . . . . . . . . . . . . . . . %           n . . . . . . . . . . .             ",
"            . . . . . . . . . . . . +       E . . . . . . . . . . . . . . . . g F           ( . . . . . . . . . . .             ",
"            . . . . . . . . . . . . +       G g . . . . . . . . . . . . . . . H           I _ . . . . . . . . . . .             ",
"            . . . . . . . . . . . . +         J . . . . . . . . . . . . . . D K           L . . . . . . . . . . . .             ",
"            . . . . . . . . . . . . +         M N . . . . . . . . . . . . D O           P g . . . . . . . . . . . .             ",
"            . . . . . . . . . . . . +           h % z . . . . . . . . . Q s           b _ . . . . . . . . . . . . .             ",
"            . . . . . . . . . . . . +               R S i p T ~ D U 6 V             } 9 . . . . . . . . . . . . . .             ",
"            . . . . . . . . . . . . 4 ( s                                       k W . . . . . . . . . . . . . . . .             ",
"            . . . . . . . . . . . . . . . X S Y                             ^ L T . . . . . . . . . . . . . . . . .             ",
"            . . . . . . . . . . . . . . . . . . Z j ` & G  ...M = +.@.w W 1 g . . . . . . . . . . . . . . . . . . .             ",
"            . . . . . . . . . . . . . . . . . . . . . . . . . . . . . . . . . . . . . . . . . . . . . . . . . . . .             ",
"            . . . . . . . . . . . . . . . . . . . . . . . . . . . . . . . . . . . . . . . . . . . . . . . . . . . .             ",
"            . . . . . . . . . . . . . . . . . . . . . . . . . . . . . . . . . . . . . . . . . . . . . . . . . . . .             ",
"                                                                                                                                ",
"                                                                                                                                ",
"                                                                                                                                ",
"                                                                                                                                ",
"                                                                                                                                ",
"                                                                                                                                "};
