/* XPM */
static char * six_xpm[] = {
"64 64 136 2",
"  	c #000000",
". 	c #FFFFFF",
"+ 	c #FAFAFA",
"@ 	c #DADADA",
"# 	c #B2B2B2",
"$ 	c #8E8E8E",
"% 	c #656565",
"& 	c #474747",
"* 	c #222222",
"= 	c #383838",
"- 	c #555555",
"; 	c #727272",
"> 	c #989898",
", 	c #B4B4B4",
"' 	c #D5D5D5",
") 	c #F4F4F4",
"! 	c #ECECEC",
"~ 	c #A7A7A7",
"{ 	c #3B3B3B",
"] 	c #6A6A6A",
"^ 	c #E5E5E5",
"/ 	c #F9F9F9",
"( 	c #ACACAC",
"_ 	c #1C1C1C",
": 	c #E9E9E9",
"< 	c #696969",
"[ 	c #565656",
"} 	c #DDDDDD",
"| 	c #F2F2F2",
"1 	c #FBFBFB",
"2 	c #FCFCFC",
"3 	c #F5F5F5",
"4 	c #DFDFDF",
"5 	c #B6B6B6",
"6 	c #535353",
"7 	c #E4E4E4",
"8 	c #454545",
"9 	c #353535",
"0 	c #C3C3C3",
"a 	c #F8F8F8",
"b 	c #A3A3A3",
"c 	c #EBEBEB",
"d 	c #404040",
"e 	c #515151",
"f 	c #E8E8E8",
"g 	c #A2A2A2",
"h 	c #F7F7F7",
"i 	c #636363",
"j 	c #323232",
"k 	c #E7E7E7",
"l 	c #494949",
"m 	c #C5C5C5",
"n 	c #ADADAD",
"o 	c #6D6D6D",
"p 	c #FDFDFD",
"q 	c #7F7F7F",
"r 	c #CDCDCD",
"s 	c #DEDEDE",
"t 	c #999999",
"u 	c #9B9B9B",
"v 	c #CACACA",
"w 	c #D0D0D0",
"x 	c #EAEAEA",
"y 	c #9E9E9E",
"z 	c #2A2A2A",
"A 	c #5D5D5D",
"B 	c #707070",
"C 	c #929292",
"D 	c #DCDCDC",
"E 	c #787878",
"F 	c #4B4B4B",
"G 	c #262626",
"H 	c #626262",
"I 	c #7C7C7C",
"J 	c #9F9F9F",
"K 	c #F1F1F1",
"L 	c #C6C6C6",
"M 	c #F3F3F3",
"N 	c #8C8C8C",
"O 	c #AFAFAF",
"P 	c #BEBEBE",
"Q 	c #9A9A9A",
"R 	c #C4C4C4",
"S 	c #B3B3B3",
"T 	c #838383",
"U 	c #C8C8C8",
"V 	c #F6F6F6",
"W 	c #AAAAAA",
"X 	c #EEEEEE",
"Y 	c #8B8B8B",
"Z 	c #D4D4D4",
"` 	c #919191",
" .	c #5A5A5A",
"..	c #424242",
"+.	c #E6E6E6",
"@.	c #959595",
"#.	c #878787",
"$.	c #737373",
"%.	c #606060",
"&.	c #C2C2C2",
"*.	c #6C6C6C",
"=.	c #808080",
"-.	c #CECECE",
";.	c #FEFEFE",
">.	c #C7C7C7",
",.	c #898989",
"'.	c #7E7E7E",
").	c #777777",
"!.	c #D8D8D8",
"~.	c #8F8F8F",
"{.	c #F0F0F0",
"].	c #E2E2E2",
"^.	c #A1A1A1",
"/.	c #B9B9B9",
"(.	c #D2D2D2",
"_.	c #C1C1C1",
":.	c #BABABA",
"<.	c #B7B7B7",
"[.	c #BCBCBC",
"}.	c #818181",
"|.	c #BDBDBD",
"1.	c #8D8D8D",
"2.	c #7D7D7D",
"3.	c #5C5C5C",
"4.	c #D7D7D7",
"5.	c #6E6E6E",
"6.	c #E0E0E0",
"7.	c #0D0D0D",
"8.	c #D3D3D3",
"9.	c #909090",
"0.	c #4D4D4D",
"a.	c #D1D1D1",
"b.	c #9D9D9D",
"c.	c #BBBBBB",
"d.	c #CCCCCC",
"e.	c #A0A0A0",
"                                                                                                                                ",
"                                                                                                                                ",
"                                                                                                                                ",
"                                                                                                                                ",
"                                                                                                                                ",
"                                                                                                                                ",
"            . . . . . . . . . . . . . . . . . . . . . . . . . . . . . . . . . . . . . . . . . . . . . . . . . . . .             ",
"            . . . . . . . . . . . . . . . . . . . . . . . . . . . . . . . . . . . . . . . . . . . . . . . . . . . .             ",
"            . . . . . . . . . . . . . . . . . . . . . . . + @ # $ % & * = - ; > , ' ) . . . . . . . . . . . . . . .             ",
"            . . . . . . . . . . . . . . . . . . . . . ! ~ {                           ] , ^ . . . . . . . . . . . .             ",
"            . . . . . . . . . . . . . . . . . . . / ( _                                     : . . . . . . . . . . .             ",
"            . . . . . . . . . . . . . . . . . . : <         [ , } | 1 2 3 4 5 6             : . . . . . . . . . . .             ",
"            . . . . . . . . . . . . . . . . . 7 8       9 0 2 . . . . . . . . a b           : . . . . . . . . . . .             ",
"            . . . . . . . . . . . . . . . . c d       e f . . . . . . . . . . . . g         : . . . . . . . . . . .             ",
"            . . . . . . . . . . . . . . . h i       j k . . . . . . . . . . . . . a l       : . . . . . . . . . . .             ",
"            . . . . . . . . . . . . . . . b         m . . . . . . . . . . . . . . . n       : . . . . . . . . . . .             ",
"            . . . . . . . . . . . . . . 4         o p . . . . . . . . . . . . . . . '       : . . . . . . . . . . .             ",
"            . . . . . . . . . . . . . . q         r . . . . . . . . . . . . . . . . . . . . . . . . . . . . . . . .             ",
"            . . . . . . . . . . . . . s         = 1 . . . . . . . . . . . . . . . . . . . . . . . . . . . . . . . .             ",
"            . . . . . . . . . . . . . t         u . . . . . . . . . . . . . . . . . . . . . . . . . . . . . . . . .             ",
"            . . . . . . . . . . . . h *         v . . . . . . . . . . . . . . . . . . . . . . . . . . . . . . . . .             ",
"            . . . . . . . . . . . . w           x . . . . . . . . . . . . . . . . . . . . . . . . . . . . . . . . .             ",
"            . . . . . . . . . . . . y         z p . . . . . . . . . . . . . . . . . . . . . . . . . . . . . . . . .             ",
"            . . . . . . . . . . . . A         B . . . . . . . . . . . . . . . . . . . . . . . . . . . . . . . . . .             ",
"            . . . . . . . . . . . |           C . . . . . . . . . . . . . . . . . . . . . . . . . . . . . . . . . .             ",
"            . . . . . . . . . . . D           ~ . . . . a w b E F G { H I J r K . . . . . . . . . . . . . . . . . .             ",
"            . . . . . . . . . . . L           , . . M ( j                       N 7 . . . . . . . . . . . . . . . .             ",
"            . . . . . . . . . . . O           P . w 8                               Q / . . . . . . . . . . . . . .             ",
"            . . . . . . . . . . . y           R S         T U c V 2 K } W d           B X . . . . . . . . . . . . .             ",
"            . . . . . . . . . . . Y           H       l Z . . . . . . . . | `            .3 . . . . . . . . . . . .             ",
"            . . . . . . . . . . . I                 ..+.. . . . . . . . . . p @.          #.p . . . . . . . . . . .             ",
"            . . . . . . . . . . . $.                w . . . . . . . . . . . . 1 %.          &.. . . . . . . . . . .             ",
"            . . . . . . . . . . . *.              =.. . . . . . . . . . . . . . '           6 1 . . . . . . . . . .             ",
"            . . . . . . . . . . . *.              -.. . . . . . . . . . . . . . ;. .          >.. . . . . . . . . .             ",
"            . . . . . . . . . . . $.            G a . . . . . . . . . . . . . . . #           ,.. . . . . . . . . .             ",
"            . . . . . . . . . . . '.            ).. . . . . . . . . . . . . . . . !.          j 2 . . . . . . . . .             ",
"            . . . . . . . . . . . ~.            b . . . . . . . . . . . . . . . . {.            ].. . . . . . . . .             ",
"            . . . . . . . . . . . ^.            /.. . . . . . . . . . . . . . . . . G           (.. . . . . . . . .             ",
"            . . . . . . . . . . . 5             _.. . . . . . . . . . . . . . . . . F           >.. . . . . . . . .             ",
"            . . . . . . . . . . . r             U . . . . . . . . . . . . . . . . . i           :.. . . . . . . . .             ",
"            . . . . . . . . . . . 7             R . . . . . . . . . . . . . . . . . i           <.. . . . . . . . .             ",
"            . . . . . . . . . . . 1 G           [.. . . . . . . . . . . . . . . . . F           P . . . . . . . . .             ",
"            . . . . . . . . . . . . }.          O . . . . . . . . . . . . . . . . . G           w . . . . . . . . .             ",
"            . . . . . . . . . . . . |.          1.. . . . . . . . . . . . . . . . {.            ^ . . . . . . . . .             ",
"            . . . . . . . . . . . . x           - . . . . . . . . . . . . . . . . !.          j 2 . . . . . . . . .             ",
"            . . . . . . . . . . . . . 2.          x . . . . . . . . . . . . . . . #           @.. . . . . . . . . .             ",
"            . . . . . . . . . . . . . (.          /.. . . . . . . . . . . . . . ;.3.          4.. . . . . . . . . .             ",
"            . . . . . . . . . . . . . ;.5.        6 / . . . . . . . . . . . . . '           5.;.. . . . . . . . . .             ",
"            . . . . . . . . . . . . . . 6.          , . . . . . . . . . . . . 1 %.          s . . . . . . . . . . .             ",
"            . . . . . . . . . . . . . . . O         7.8.. . . . . . . . . . p @.          # . . . . . . . . . . . .             ",
"            . . . . . . . . . . . . . . . p 1.        G &.;.. . . . . . . | `           Q ;.. . . . . . . . . . . .             ",
"            . . . . . . . . . . . . . . . . 1 9.          ; &.: V 2 | s ( d           ~ p . . . . . . . . . . . . .             ",
"            . . . . . . . . . . . . . . . . . ;./.*                               0.a.. . . . . . . . . . . . . . .             ",
"            . . . . . . . . . . . . . . . . . . . ! b.*                       [ c.a . . . . . . . . . . . . . . . .             ",
"            . . . . . . . . . . . . . . . . . . . . . ) d.e.E F G _ d ] ` /.6.;.. . . . . . . . . . . . . . . . . .             ",
"            . . . . . . . . . . . . . . . . . . . . . . . . . . . . . . . . . . . . . . . . . . . . . . . . . . . .             ",
"            . . . . . . . . . . . . . . . . . . . . . . . . . . . . . . . . . . . . . . . . . . . . . . . . . . . .             ",
"            . . . . . . . . . . . . . . . . . . . . . . . . . . . . . . . . . . . . . . . . . . . . . . . . . . . .             ",
"                                                                                                                                ",
"                                                                                                                                ",
"                                                                                                                                ",
"                                                                                                                                ",
"                                                                                                                                ",
"                                                                                                                                "};
