/* XPM */
static char * seven_xpm[] = {
"64 64 85 1",
" 	c #000000",
".	c #FFFFFF",
"+	c #7C7C7C",
"@	c #2E2E2E",
"#	c #7F7F7F",
"$	c #D0D0D0",
"%	c #888888",
"&	c #AFAFAF",
"*	c #515151",
"=	c #FCFCFC",
"-	c #FAFAFA",
";	c #424242",
">	c #B7B7B7",
",	c #C9C9C9",
"'	c #1C1C1C",
")	c #F2F2F2",
"!	c #717171",
"~	c #999999",
"{	c #DFDFDF",
"]	c #C8C8C8",
"^	c #B6B6B6",
"/	c #CBCBCB",
"(	c #0D0D0D",
"_	c #EDEDED",
":	c #8E8E8E",
"<	c #E7E7E7",
"[	c #D9D9D9",
"}	c #A3A3A3",
"|	c #636363",
"1	c #FEFEFE",
"2	c #F6F6F6",
"3	c #C2C2C2",
"4	c #C0C0C0",
"5	c #323232",
"6	c #606060",
"7	c #A6A6A6",
"8	c #D7D7D7",
"9	c #E8E8E8",
"0	c #8B8B8B",
"a	c #828282",
"b	c #ECECEC",
"c	c #D2D2D2",
"d	c #ADADAD",
"e	c #555555",
"f	c #F9F9F9",
"g	c #404040",
"h	c #BABABA",
"i	c #222222",
"j	c #F3F3F3",
"k	c #707070",
"l	c #9C9C9C",
"m	c #DEDEDE",
"n	c #E2E2E2",
"o	c #979797",
"p	c #767676",
"q	c #F1F1F1",
"r	c #474747",
"s	c #FBFBFB",
"t	c #4F4F4F",
"u	c #B2B2B2",
"v	c #CFCFCF",
"w	c #EFEFEF",
"x	c #7D7D7D",
"y	c #929292",
"z	c #E5E5E5",
"A	c #DBDBDB",
"B	c #A2A2A2",
"C	c #686868",
"D	c #C4C4C4",
"E	c #BEBEBE",
"F	c #383838",
"G	c #F8F8F8",
"H	c #5F5F5F",
"I	c #A9A9A9",
"J	c #D6D6D6",
"K	c #EAEAEA",
"L	c #898989",
"M	c #868686",
"N	c #EBEBEB",
"O	c #D5D5D5",
"P	c #ABABAB",
"Q	c #5A5A5A",
"R	c #FDFDFD",
"S	c #3D3D3D",
"T	c #BDBDBD",
"                                                                ",
"                                                                ",
"                                                                ",
"                                                                ",
"                                                                ",
"                                                                ",
"      ....................................................      ",
"      ....................................................      ",
"      ....................................................      ",
"      ............+                            @..........      ",
"      ............+                            @..........      ",
"      ............+                            @..........      ",
"      ............+                            #..........      ",
"      ............+                            $..........      ",
"      ............+  %....................&   *=..........      ",
"      ............+  %...................-;   >...........      ",
"      ............+  %...................,   ')...........      ",
"      ............+  %...................!   ~............      ",
"      ............+  %..................{    {............      ",
"      ............]^^/..................~   !.............      ",
"      .................................)'   ,.............      ",
"      .................................>   ;-.............      ",
"      ................................=*   &..............      ",
"      ................................$   (_..............      ",
"      ................................#   :...............      ",
"      ...............................<    [...............      ",
"      ...............................}   |1...............      ",
"      ..............................2@   3................      ",
"      ..............................4   52................      ",
"      .............................16   7.................      ",
"      .............................8    9.................      ",
"      .............................0   a..................      ",
"      ............................b    c..................      ",
"      ............................d   e=..................      ",
"      ...........................fg   h...................      ",
"      ...........................]   ij...................      ",
"      ...........................k   l....................      ",
"      ..........................m    n....................      ",
"      ..........................o   p.....................      ",
"      .........................q'   /.....................      ",
"      .........................^   rs.....................      ",
"      ........................=t   u......................      ",
"      ........................v   (w......................      ",
"      ........................x   y.......................      ",
"      .......................z    A.......................      ",
"      .......................B   C........................      ",
"      ......................2@   D........................      ",
"      ......................E   FG........................      ",
"      .....................1H   I.........................      ",
"      .....................J    K.........................      ",
"      .....................L   M..........................      ",
"      ....................N    O..........................      ",
"      ....................P   QR..........................      ",
"      ...................fS   T...........................      ",
"      ....................................................      ",
"      ....................................................      ",
"      ....................................................      ",
"      ....................................................      ",
"                                                                ",
"                                                                ",
"                                                                ",
"                                                                ",
"                                                                ",
"                                                                "};
