/* XPM */
static char * eight_xpm[] = {
"64 64 130 2",
"  	c #000000",
". 	c #FFFFFF",
"+ 	c #F6F6F6",
"@ 	c #D5D5D5",
"# 	c #B2B2B2",
"$ 	c #858585",
"% 	c #6A6A6A",
"& 	c #4F4F4F",
"* 	c #222222",
"= 	c #404040",
"- 	c #606060",
"; 	c #777777",
"> 	c #A0A0A0",
", 	c #C7C7C7",
"' 	c #E9E9E9",
") 	c #E7E7E7",
"! 	c #A3A3A3",
"~ 	c #2E2E2E",
"{ 	c #7C7C7C",
"] 	c #CECECE",
"^ 	c #FDFDFD",
"/ 	c #FBFBFB",
"( 	c #B3B3B3",
"_ 	c #161616",
": 	c #ECECEC",
"< 	c #F7F7F7",
"[ 	c #797979",
"} 	c #323232",
"| 	c #ADADAD",
"1 	c #DDDDDD",
"2 	c #F3F3F3",
"3 	c #FCFCFC",
"4 	c #EAEAEA",
"5 	c #C5C5C5",
"6 	c #727272",
"7 	c #DADADA",
"8 	c #FAFAFA",
"9 	c #818181",
"0 	c #828282",
"a 	c #F2F2F2",
"b 	c #FEFEFE",
"c 	c #C3C3C3",
"d 	c #E0E0E0",
"e 	c #AFAFAF",
"f 	c #CDCDCD",
"g 	c #555555",
"h 	c #F9F9F9",
"i 	c #353535",
"j 	c #EFEFEF",
"k 	c #9A9A9A",
"l 	c #B4B4B4",
"m 	c #A9A9A9",
"n 	c #3B3B3B",
"o 	c #E2E2E2",
"p 	c #757575",
"q 	c #DCDCDC",
"r 	c #262626",
"s 	c #AAAAAA",
"t 	c #626262",
"u 	c #C2C2C2",
"v 	c #A1A1A1",
"w 	c #787878",
"x 	c #8C8C8C",
"y 	c #D4D4D4",
"z 	c #CCCCCC",
"A 	c #8B8B8B",
"B 	c #DFDFDF",
"C 	c #9C9C9C",
"D 	c #BBBBBB",
"E 	c #6C6C6C",
"F 	c #737373",
"G 	c #696969",
"H 	c #565656",
"I 	c #383838",
"J 	c #F0F0F0",
"K 	c #9B9B9B",
"L 	c #D1D1D1",
"M 	c #DEDEDE",
"N 	c #848484",
"O 	c #959595",
"P 	c #E4E4E4",
"Q 	c #AEAEAE",
"R 	c #F4F4F4",
"S 	c #F8F8F8",
"T 	c #EBEBEB",
"U 	c #BEBEBE",
"V 	c #D0D0D0",
"W 	c #F1F1F1",
"X 	c #DBDBDB",
"Y 	c #535353",
"Z 	c #BDBDBD",
"` 	c #A7A7A7",
" .	c #424242",
"..	c #CBCBCB",
"+.	c #BFBFBF",
"@.	c #E5E5E5",
"#.	c #EEEEEE",
"$.	c #9D9D9D",
"%.	c #1C1C1C",
"&.	c #D6D6D6",
"*.	c #E3E3E3",
"=.	c #4D4D4D",
"-.	c #3D3D3D",
";.	c #EDEDED",
">.	c #5D5D5D",
",.	c #CFCFCF",
"'.	c #B0B0B0",
").	c #969696",
"!.	c #D2D2D2",
"~.	c #868686",
"{.	c #8A8A8A",
"].	c #A4A4A4",
"^.	c #B1B1B1",
"/.	c #C4C4C4",
"(.	c #D9D9D9",
"_.	c #949494",
":.	c #8E8E8E",
"<.	c #D8D8D8",
"[.	c #C0C0C0",
"}.	c #E6E6E6",
"|.	c #9E9E9E",
"1.	c #D3D3D3",
"2.	c #B6B6B6",
"3.	c #9F9F9F",
"4.	c #656565",
"5.	c #494949",
"6.	c #5A5A5A",
"7.	c #717171",
"8.	c #8D8D8D",
"9.	c #B5B5B5",
"                                                                                                                                ",
"                                                                                                                                ",
"                                                                                                                                ",
"                                                                                                                                ",
"                                                                                                                                ",
"                                                                                                                                ",
"            . . . . . . . . . . . . . . . . . . . . . . . . . . . . . . . . . . . . . . . . . . . . . . . . . . . .             ",
"            . . . . . . . . . . . . . . . . . . . . . . . . . . . . . . . . . . . . . . . . . . . . . . . . . . . .             ",
"            . . . . . . . . . . . . . . . . . . . . + @ # $ % & * = - ; > , ' . . . . . . . . . . . . . . . . . . .             ",
"            . . . . . . . . . . . . . . . . . . ) ! ~                         { ] ^ . . . . . . . . . . . . . . . .             ",
"            . . . . . . . . . . . . . . . . / ( _                                 { : . . . . . . . . . . . . . . .             ",
"            . . . . . . . . . . . . . . . < [           } | 1 2 3 < 4 5 6           } 7 . . . . . . . . . . . . . .             ",
"            . . . . . . . . . . . . . . 8 9           0 a . . . . . . . b c _         } d . . . . . . . . . . . . .             ",
"            . . . . . . . . . . . . . . e           0 / . . . . . . . . . . f           g h . . . . . . . . . . . .             ",
"            . . . . . . . . . . . . . : *         i j . . . . . . . . . . . . k           l . . . . . . . . . . . .             ",
"            . . . . . . . . . . . . . |           m . . . . . . . . . . . . . '           n 3 . . . . . . . . . . .             ",
"            . . . . . . . . . . . . . -           o . . . . . . . . . . . . . . p           q . . . . . . . . . . .             ",
"            . . . . . . . . . . . . j           r / . . . . . . . . . . . . . . s           l . . . . . . . . . . .             ",
"            . . . . . . . . . . . . o           t . . . . . . . . . . . . . . . u           v . . . . . . . . . . .             ",
"            . . . . . . . . . . . . @           w . . . . . . . . . . . . . . . f           x . . . . . . . . . . .             ",
"            . . . . . . . . . . . . y           ; . . . . . . . . . . . . . . . z           A . . . . . . . . . . .             ",
"            . . . . . . . . . . . . B           t . . . . . . . . . . . . . . . u           C . . . . . . . . . . .             ",
"            . . . . . . . . . . . . 2           * / . . . . . . . . . . . . . . s           D . . . . . . . . . . .             ",
"            . . . . . . . . . . . . . E           o . . . . . . . . . . . . . . F           d . . . . . . . . . . .             ",
"            . . . . . . . . . . . . . u           m . . . . . . . . . . . . . '           G b . . . . . . . . . . .             ",
"            . . . . . . . . . . . . . h H         I J . . . . . . . . . . . . K           L . . . . . . . . . . . .             ",
"            . . . . . . . . . . . . . . M _         N / . . . . . . . . . . ]           C . . . . . . . . . . . . .             ",
"            . . . . . . . . . . . . . . . y r         $ 2 . . . . . . . b 5 _         O / . . . . . . . . . . . . .             ",
"            . . . . . . . . . . . . . . . . P F         i Q M R 3 S T , p         } U ^ . . . . . . . . . . . . . .             ",
"            . . . . . . . . . . . . . . . . . ^ V 0                           & l W . . . . . . . . . . . . . . . .             ",
"            . . . . . . . . . . . . . . . . . . . ^ X A                   Y Z R . . . . . . . . . . . . . . . . . .             ",
"            . . . . . . . . . . . . . . . . . P `  .                            N ../ . . . . . . . . . . . . . . .             ",
"            . . . . . . . . . . . . . . . W k           F +.@.R 3 < #.V $.%.        - &.. . . . . . . . . . . . . .             ",
"            . . . . . . . . . . . . . . *.=.        -.L b . . . . . . . . ;.$           # b . . . . . . . . . . . .             ",
"            . . . . . . . . . . . . . P ~         =.' . . . . . . . . . . . 3 k           s . . . . . . . . . . . .             ",
"            . . . . . . . . . . . . + >.          7 . . . . . . . . . . . . . 8 E           ,.. . . . . . . . . . .             ",
"            . . . . . . . . . . . . '.          ).. . . . . . . . . . . . . . . X           & 8 . . . . . . . . . .             ",
"            . . . . . . . . . . . + i           B . . . . . . . . . . . . . . . . E           5 . . . . . . . . . .             ",
"            . . . . . . . . . . . !.          -.b . . . . . . . . . . . . . . . . '.          ~.. . . . . . . . . .             ",
"            . . . . . . . . . . . `           A . . . . . . . . . . . . . . . . . y           r / . . . . . . . . .             ",
"            . . . . . . . . . . . {.          ].. . . . . . . . . . . . . . . . . P             #.. . . . . . . . .             ",
"            . . . . . . . . . . . p           ^.. . . . . . . . . . . . . . . . . ;.            P . . . . . . . . .             ",
"            . . . . . . . . . . . p           '.. . . . . . . . . . . . . . . . . :             @.. . . . . . . . .             ",
"            . . . . . . . . . . . x           ! . . . . . . . . . . . . . . . . . P             j . . . . . . . . .             ",
"            . . . . . . . . . . . >           {.. . . . . . . . . . . . . . . . . y             8 . . . . . . . . .             ",
"            . . . . . . . . . . . /.          -.b . . . . . . . . . . . . . . . . e           E . . . . . . . . . .             ",
"            . . . . . . . . . . . ;.            B . . . . . . . . . . . . . . . . E           # . . . . . . . . . .             ",
"            . . . . . . . . . . . . 6           ).. . . . . . . . . . . . . . . X             *.. . . . . . . . . .             ",
"            . . . . . . . . . . . . (.            7 . . . . . . . . . . . . . 8 E           _.. . . . . . . . . . .             ",
"            . . . . . . . . . . . . . :.          =.' . . . . . . . . . . . 3 k           ~ ;.. . . . . . . . . . .             ",
"            . . . . . . . . . . . . . < p           = L . . . . . . . . . ;.$           * <.. . . . . . . . . . . .             ",
"            . . . . . . . . . . . . . . R ;             F [.}.R ^ S #.L |.%.          i 1.. . . . . . . . . . . . .             ",
"            . . . . . . . . . . . . . . . ^ D r                                     N #.. . . . . . . . . . . . . .             ",
"            . . . . . . . . . . . . . . . . . j 2.g                           %._.(.b . . . . . . . . . . . . . . .             ",
"            . . . . . . . . . . . . . . . . . . . ^ o /.3.[ 4.5.* n 6.7.8.9.&.R . . . . . . . . . . . . . . . . . .             ",
"            . . . . . . . . . . . . . . . . . . . . . . . . . . . . . . . . . . . . . . . . . . . . . . . . . . . .             ",
"            . . . . . . . . . . . . . . . . . . . . . . . . . . . . . . . . . . . . . . . . . . . . . . . . . . . .             ",
"            . . . . . . . . . . . . . . . . . . . . . . . . . . . . . . . . . . . . . . . . . . . . . . . . . . . .             ",
"                                                                                                                                ",
"                                                                                                                                ",
"                                                                                                                                ",
"                                                                                                                                ",
"                                                                                                                                ",
"                                                                                                                                "};
