/* XPM */
static char * nine_xpm[] = {
"64 64 126 2",
"  	c #000000",
". 	c #FFFFFF",
"+ 	c #F2F2F2",
"@ 	c #CACACA",
"# 	c #A4A4A4",
"$ 	c #7D7D7D",
"% 	c #555555",
"& 	c #353535",
"* 	c #1C1C1C",
"= 	c #404040",
"- 	c #656565",
"; 	c #919191",
"> 	c #BBBBBB",
", 	c #E4E4E4",
"' 	c #DCDCDC",
") 	c #8B8B8B",
"! 	c #6E6E6E",
"~ 	c #CECECE",
"{ 	c #FEFEFE",
"] 	c #F1F1F1",
"^ 	c #8D8D8D",
"/ 	c #7F7F7F",
"( 	c #EFEFEF",
"_ 	c #E0E0E0",
": 	c #474747",
"< 	c #898989",
"[ 	c #CBCBCB",
"} 	c #ECECEC",
"| 	c #F8F8F8",
"1 	c #FBFBFB",
"2 	c #D7D7D7",
"3 	c #9F9F9F",
"4 	c #222222",
"5 	c #DDDDDD",
"6 	c #2A2A2A",
"7 	c #4F4F4F",
"8 	c #D6D6D6",
"9 	c #E9E9E9",
"0 	c #757575",
"a 	c #3D3D3D",
"b 	c #E7E7E7",
"c 	c #3B3B3B",
"d 	c #454545",
"e 	c #E8E8E8",
"f 	c #F7F7F7",
"g 	c #717171",
"h 	c #5D5D5D",
"i 	c #F6F6F6",
"j 	c #787878",
"k 	c #D4D4D4",
"l 	c #2E2E2E",
"m 	c #858585",
"n 	c #B6B6B6",
"o 	c #666666",
"p 	c #D5D5D5",
"q 	c #F4F4F4",
"r 	c #161616",
"s 	c #878787",
"t 	c #8A8A8A",
"u 	c #B3B3B3",
"v 	c #888888",
"w 	c #C0C0C0",
"x 	c #AFAFAF",
"y 	c #838383",
"z 	c #DADADA",
"A 	c #4B4B4B",
"B 	c #C7C7C7",
"C 	c #D0D0D0",
"D 	c #A6A6A6",
"E 	c #808080",
"F 	c #535353",
"G 	c #F5F5F5",
"H 	c #ADADAD",
"I 	c #B2B2B2",
"J 	c #CDCDCD",
"K 	c #D9D9D9",
"L 	c #383838",
"M 	c #FAFAFA",
"N 	c #A8A8A8",
"O 	c #FCFCFC",
"P 	c #494949",
"Q 	c #E1E1E1",
"R 	c #B9B9B9",
"S 	c #D1D1D1",
"T 	c #D2D2D2",
"U 	c #F9F9F9",
"V 	c #5A5A5A",
"W 	c #424242",
"X 	c #939393",
"Y 	c #4D4D4D",
"Z 	c #EEEEEE",
"` 	c #EDEDED",
" .	c #DBDBDB",
"..	c #A9A9A9",
"+.	c #CCCCCC",
"@.	c #9C9C9C",
"#.	c #B4B4B4",
"$.	c #F0F0F0",
"%.	c #707070",
"&.	c #B1B1B1",
"*.	c #848484",
"=.	c #6A6A6A",
"-.	c #686868",
";.	c #929292",
">.	c #BEBEBE",
",.	c #EAEAEA",
"'.	c #989898",
").	c #C8C8C8",
"!.	c #C2C2C2",
"~.	c #F3F3F3",
"{.	c #9A9A9A",
"].	c #8C8C8C",
"^.	c #C6C6C6",
"/.	c #9B9B9B",
"(.	c #DEDEDE",
"_.	c #FDFDFD",
":.	c #909090",
"<.	c #B5B5B5",
"[.	c #C4C4C4",
"}.	c #7C7C7C",
"|.	c #EBEBEB",
"1.	c #C9C9C9",
"2.	c #BFBFBF",
"3.	c #767676",
"4.	c #E3E3E3",
"5.	c #A0A0A0",
"                                                                                                                                ",
"                                                                                                                                ",
"                                                                                                                                ",
"                                                                                                                                ",
"                                                                                                                                ",
"                                                                                                                                ",
"            . . . . . . . . . . . . . . . . . . . . . . . . . . . . . . . . . . . . . . . . . . . . . . . . . . . .             ",
"            . . . . . . . . . . . . . . . . . . . . . . . . . . . . . . . . . . . . . . . . . . . . . . . . . . . .             ",
"            . . . . . . . . . . . . . . . . . . . . + @ # $ % & * = - ; > , . . . . . . . . . . . . . . . . . . . .             ",
"            . . . . . . . . . . . . . . . . . . ' )                         ! ~ { . . . . . . . . . . . . . . . . .             ",
"            . . . . . . . . . . . . . . . . ] ^                                 / ( . . . . . . . . . . . . . . . .             ",
"            . . . . . . . . . . . . . . . _ :           < [ } | 1 ( 2 3 4         : , . . . . . . . . . . . . . . .             ",
"            . . . . . . . . . . . . . . 5 6         7 8 . . . . . . . . 9 0         a b . . . . . . . . . . . . . .             ",
"            . . . . . . . . . . . . . } c         d e . . . . . . . . . . f g         h i . . . . . . . . . . . . .             ",
"            . . . . . . . . . . . . { j           k . . . . . . . . . . . . ( l         3 . . . . . . . . . . . . .             ",
"            . . . . . . . . . . . . @           m . . . . . . . . . . . . . . n           _ . . . . . . . . . . . .             ",
"            . . . . . . . . . . . { o           p . . . . . . . . . . . . . . q r         s . . . . . . . . . . . .             ",
"            . . . . . . . . . . . _           c 1 . . . . . . . . . . . . . . . t           9 . . . . . . . . . . .             ",
"            . . . . . . . . . . . u           v . . . . . . . . . . . . . . . . w           x . . . . . . . . . . .             ",
"            . . . . . . . . . . . y           x . . . . . . . . . . . . . . . . z           h . . . . . . . . . . .             ",
"            . . . . . . . . . . . A           B . . . . . . . . . . . . . . . . (             9 . . . . . . . . . .             ",
"            . . . . . . . . . . 1             C . . . . . . . . . . . . . . . . |             @ . . . . . . . . . .             ",
"            . . . . . . . . . . i             2 . . . . . . . . . . . . . . . . {             D . . . . . . . . . .             ",
"            . . . . . . . . . . |             2 . . . . . . . . . . . . . . . . . 4           E . . . . . . . . . .             ",
"            . . . . . . . . . . . 4           C . . . . . . . . . . . . . . . . 1             A . . . . . . . . . .             ",
"            . . . . . . . . . . . F           B . . . . . . . . . . . . . . . . G               1 . . . . . . . . .             ",
"            . . . . . . . . . . . $           H . . . . . . . . . . . . . . . . b               ] . . . . . . . . .             ",
"            . . . . . . . . . . . I           s . . . . . . . . . . . . . . . . J               e . . . . . . . . .             ",
"            . . . . . . . . . . . K           L M . . . . . . . . . . . . . . . N               , . . . . . . . . .             ",
"            . . . . . . . . . . . M :           k . . . . . . . . . . . . . . O P               Q . . . . . . . . .             ",
"            . . . . . . . . . . . . R           y . . . . . . . . . . . . . . S                 _ . . . . . . . . .             ",
"            . . . . . . . . . . . . i c           T . . . . . . . . . . . . U V                 , . . . . . . . . .             ",
"            . . . . . . . . . . . . . T           W e . . . . . . . . . . O X                   e . . . . . . . . .             ",
"            . . . . . . . . . . . . . . H           Y 8 . . . . . . . . ] ^       o             Z . . . . . . . . .             ",
"            . . . . . . . . . . . . . . { x             v [ ` | 1 ]  ...L       ! Z             U . . . . . . . . .             ",
"            . . . . . . . . . . . . . . . . +.c                               @.| |           l . . . . . . . . . .             ",
"            . . . . . . . . . . . . . . . . . i #.L                       E ' . . $.          %.. . . . . . . . . .             ",
"            . . . . . . . . . . . . . . . . . . . M  .&.*.=.P * c -.;.>.,.. . . . e           '.. . . . . . . . . .             ",
"            . . . . . . . . . . . . . . . . . . . . . . . . . . . . . . . . . . . z           R . . . . . . . . . .             ",
"            . . . . . . . . . . . . . . . . . . . . . . . . . . . . . . . . . . . ).           .. . . . . . . . . .             ",
"            . . . . . . . . . . . . . . . . . . . . . . . . . . . . . . . . . . . H         r i . . . . . . . . . .             ",
"            . . . . . . . . . . . . . . . . . . . . . . . . . . . . . . . . . . . s         y . . . . . . . . . . .             ",
"            . . . . . . . . . . . . . . . . . . . . . . . . . . . . . . . . . . O &         !.. . . . . . . . . . .             ",
"            . . . . . . . . . . . . . . . . . . . . . . . . . . . . . . . . . . _         4 ~.. . . . . . . . . . .             ",
"            . . . . . . . . . . . . . . . . . . . . . . . . . . . . . . . . . . H         {.. . . . . . . . . . . .             ",
"            . . . . . . . . . . . . . ].    < . . . . . . . . . . . . . . . . 1 A         b . . . . . . . . . . . .             ",
"            . . . . . . . . . . . . . ].    : { . . . . . . . . . . . . . . . ^.        /.. . . . . . . . . . . . .             ",
"            . . . . . . . . . . . . . ].      (.. . . . . . . . . . . . . . G Y       d ~.. . . . . . . . . . . . .             ",
"            . . . . . . . . . . . . . ].      ].. . . . . . . . . . . . . _.:.        T . . . . . . . . . . . . . .             ",
"            . . . . . . . . . . . . . ].        @ . . . . . . . . . . . O 3         <.. . . . . . . . . . . . . . .             ",
"            . . . . . . . . . . . . . ].        * [.. . . . . . . . . b }.        H . . . . . . . . . . . . . . . .             ",
"            . . . . . . . . . . . . . ].            0 ).|.U { | e 1.t         * 2.. . . . . . . . . . . . . . . . .             ",
"            . . . . . . . . . . . . . ].                                    3.4.. . . . . . . . . . . . . . . . . .             ",
"            . . . . . . . . . . . . . G [ :.l                           E S { . . . . . . . . . . . . . . . . . . .             ",
"            . . . . . . . . . . . . . . . . O 4.!.# y h W * & F }.5.).Z . . . . . . . . . . . . . . . . . . . . . .             ",
"            . . . . . . . . . . . . . . . . . . . . . . . . . . . . . . . . . . . . . . . . . . . . . . . . . . . .             ",
"            . . . . . . . . . . . . . . . . . . . . . . . . . . . . . . . . . . . . . . . . . . . . . . . . . . . .             ",
"            . . . . . . . . . . . . . . . . . . . . . . . . . . . . . . . . . . . . . . . . . . . . . . . . . . . .             ",
"                                                                                                                                ",
"                                                                                                                                ",
"                                                                                                                                ",
"                                                                                                                                ",
"                                                                                                                                ",
"                                                                                                                                "};
