/* XPM */
static char * 00_petscuted_xpm[] = {
"21 18 41 1",
" 	c None",
".	c #383530",
"+	c #373531",
"@	c #989585",
"#	c #524F47",
"$	c #8F8C7D",
"%	c #5B584F",
"&	c #BA8A54",
"*	c #BAAB8D",
"=	c #55524A",
"-	c #918E7F",
";	c #D0A46E",
">	c #67543D",
",	c #B1AE9B",
"'	c #928F80",
")	c #999686",
"!	c #5C5950",
"~	c #B1AE9E",
"{	c #6F6C5B",
"]	c #9C9987",
"^	c #73705F",
"/	c #989583",
"(	c #A6A391",
"_	c #C0BDAC",
":	c #48453E",
"<	c #44413B",
"[	c #A5A294",
"}	c #C2BFAE",
"|	c #B5B2A0",
"1	c #46433C",
"2	c #BFBCAA",
"3	c #5E5B53",
"4	c #B4B19E",
"5	c #B2AFA0",
"6	c #4C4943",
"7	c #A19E8F",
"8	c #4B4841",
"9	c #575445",
"0	c #3D3A33",
"a	c #525042",
"b	c #413E36",
"                     ",
"            .     +  ",
"           .@#   .$% ",
"           .&*= .-;> ",
"           .@,,=',,% ",
"          .),,,,,,,,!",
"  ..      .)~,{],,^/!",
" .(_:     .@,,,,,,,,!",
" .(<      .@,,,,,,,% ",
" .(<       .[}}|~,%  ",
" .(,1......)2}}}}}3  ",
"  .(_}}}4~,2}}}}}}3  ",
"   +4}}}}}}}}}}}}3   ",
"    .~__}}}}}}}}}!   ",
"    .5}6.......7}!   ",
"    .~6       .7!    ",
"    .~8       .7!    ",
"    .90       .ab    "};
