/* XPM */
static char * 01_petscuted_xpm[] = {
"21 18 41 1",
" 	c None",
".	c #393530",
"+	c #6B685D",
"@	c #817E71",
"#	c #625F55",
"$	c #888577",
"%	c #38352F",
"&	c #7D6243",
"*	c #CBA676",
"=	c #636056",
"-	c #C0A985",
";	c #A57C4E",
">	c #373630",
",	c #B1AE9B",
"'	c #656258",
")	c #6C695E",
"!	c #8A8778",
"~	c #7F7C70",
"{	c #7B786E",
"]	c #8F8C7A",
"^	c #7C7968",
"/	c #93907E",
"(	c #787564",
"_	c #373430",
":	c #797669",
"<	c #BBB8A7",
"[	c #726F65",
"}	c #726F63",
"|	c #C2BFAE",
"1	c #737064",
"2	c #B8B5A3",
"3	c #928F82",
"4	c #777468",
"5	c #BAB7A5",
"6	c #908D81",
"7	c #7D7A6F",
"8	c #6D6A60",
"9	c #8F8C7F",
"0	c #49463C",
"a	c #454239",
"b	c #4E4B3F",
"                     ",
"                     ",
"            .     .  ",
"           +@.   #$% ",
"           &*@. =-;> ",
"           +,,@',,$% ",
"  .       ),,,,,,,,!>",
" .~{      ),,]^,,/(!_",
".:<{      ),,,,,,,,!>",
".:[       ),,,,,,,$% ",
".:}        [||<,,$.  ",
".:,1>..>>.)2|||||3.  ",
" .45|||<,,2||||||6>  ",
"  %~||||||||||||6>   ",
"   .~|||||||||||6>   ",
"   .7|~.>...>.8|6>   ",
"   .7~.       89>    ",
"   .00.       ab.    "};
