/* XPM */
static char * 02_petscuted_xpm[] = {
"21 18 26 1",
" 	c None",
".	c #383630",
"+	c #3E3B35",
"@	c #ADAA97",
"#	c #403A32",
"$	c #DAA05F",
"%	c #373530",
"&	c #B1AE9B",
"*	c #AFAC99",
"=	c #B2AF9C",
"-	c #3F3C36",
";	c #4F4C45",
">	c #ADAA9B",
",	c #5E5B4B",
"'	c #4C4942",
")	c #9F9C8B",
"!	c #C2BFAE",
"~	c #3B3833",
"{	c #A09D8C",
"]	c #383530",
"^	c #4A4740",
"/	c #4B4842",
"(	c #B3B0A1",
"_	c #3D3933",
":	c #575445",
"<	c #5B5848",
"                     ",
"           .     .   ",
"          +@.   .@+  ",
"          #$@. %@$#  ",
"          +&&&.*&&+  ",
" %       #==*&&&&&&- ",
";>.      -==*,&&&,@- ",
"').      -==*&&&&&&- ",
"').      -*==&&&&&+  ",
"').       +!!!&&&~   ",
"'&{.%...]-=!!!!!!+   ",
" ^=!!!!&&=!!!!!!!+   ",
"  /!!!!!!!!!!!!!~    ",
"   ^!!!!!!!!!!!!~    ",
"   ^!(..].....!!+    ",
"   ^(.       .!~     ",
"   ^=.       ~!.     ",
"   _:.       .<.     "};
