/* XPM */
static char * 03_petscuted_xpm[] = {
"21 18 44 1",
" 	c None",
".	c #383530",
"+	c #888577",
"@	c #626056",
"#	c #38342F",
"$	c #7F7C6F",
"%	c #6B685D",
"&	c #A47C4E",
"*	c #C0A985",
"=	c #646157",
"-	c #827F72",
";	c #CAA676",
">	c #7D6243",
",	c #B1AE9B",
"'	c #656258",
")	c #898678",
"!	c #6D6A61",
"~	c #A5A293",
"{	c #C2BFAE",
"]	c #58554E",
"^	c #7A7766",
"/	c #918E7C",
"(	c #7E7B6A",
"_	c #8D8A78",
":	c #6D6A5F",
"<	c #969383",
"[	c #545149",
"}	c #B7B4A2",
"|	c #6A675C",
"1	c #BCB9A8",
"2	c #716E64",
"3	c #BEBBA9",
"4	c #A09D8F",
"5	c #6F6C62",
"6	c #9E9B8E",
"7	c #5F5C53",
"8	c #8E8B7F",
"9	c #5D5A52",
"0	c #393631",
"a	c #939083",
"b	c #524F42",
"c	c #413E36",
"d	c #4E4B3F",
"e	c #454239",
"            .     .  ",
"           .+@   #$% ",
"           .&*= #-;> ",
"           .+,,'-,,% ",
" ..       .),,,,,,,,!",
"#~{]      .),,^/,,(_:",
" .<[      .),,,,,,,,:",
" .<[      .),,,,,,,% ",
" .<[       .<{{},,|  ",
" .<,[......)1{{{{{2  ",
"  .<3{{{},,1{{{{{{2  ",
"   .4{{{{{{{{{{{{5   ",
"    .6{{{{{{{{{{{5   ",
"    .6{7.......8{5   ",
"    .69       .8!    ",
"    .69       .8!    ",
"    .69       0a!    ",
"    .bc       .de    "};
