/* XPM */
static char * 04_petscuted_xpm[] = {
"21 18 35 1",
" 	c None",
".	c #38342F",
"+	c #383530",
"@	c #514F47",
"#	c #999686",
"$	c #373530",
"%	c #59564D",
"&	c #918E82",
"*	c #545149",
"=	c #BAAB8E",
"-	c #BB8B54",
";	c #5B584F",
">	c #B1AE9B",
",	c #939081",
"'	c #9A9787",
")	c #716E64",
"!	c #BBB8A6",
"~	c #827F72",
"{	c #68655B",
"]	c #5F5C53",
"^	c #C2BFAE",
"/	c #848173",
"(	c #B6B3A0",
"_	c #A3A092",
":	c #B7B4A2",
"<	c #BCB9A8",
"[	c #A5A293",
"}	c #6C695F",
"|	c #939083",
"1	c #5A574F",
"2	c #A29F90",
"3	c #454239",
"4	c #413E36",
"5	c #535042",
"6	c #393530",
"                     ",
"                  .  ",
"             +   @#$ ",
"            %&+ *=-$ ",
"           ;>>,*>>#$ ",
"          ;>>>>>>>>'+",
" +.       ;>>>>>>>>'+",
")!~+      ;>>>>>>>>#+",
" {~+      ;>>>>>>>'$ ",
" {~+       ]^^^>>,.  ",
" {>/++++++;(^^^^^_.  ",
"  {:^^^<>>(^^^^^^[.  ",
"   }^^^^^^^^^^^^_+   ",
"    {^^^^^^^^^^^_+   ",
"    }^|+++++++1^_+   ",
"    {&+       12+    ",
"    }&+       12+    ",
"    3@.       456    "};
