/* XPM */
static char * 05_petscuted_xpm[] = {
"21 18 30 1",
" 	c None",
".	c #383530",
"+	c #A5A290",
"@	c #47443D",
"#	c #9C9989",
"$	c #4D4A42",
"%	c #CB9558",
"&	c #B6AC94",
"*	c #9F9C8B",
"=	c #D5A268",
"-	c #564938",
";	c #B1AE9B",
">	c #49463F",
",	c #4E4B44",
"'	c #504D46",
")	c #3D3A35",
"!	c #C2BFAE",
"~	c #A6A391",
"{	c #B2AF9C",
"]	c #666352",
"^	c #6A6756",
"/	c #A19E8C",
"(	c #3B3833",
"_	c #AFAC99",
":	c #B4B1A1",
"<	c #BFBCAC",
"[	c #3E3B35",
"}	c #AFAC9D",
"|	c #5A5748",
"1	c #565345",
"                     ",
"                     ",
"            .     .  ",
"           .+@   .#$ ",
"           .%&@ .*=- ",
"           .+;;>*;;, ",
" ..       .+;;;;;;;;'",
")!!.      .~{;]+;;^/'",
" (_.      .+;;;;;;;;'",
" (_.      .~{{;;{_{, ",
" (;.       .:!!{{{$  ",
" ({_.......+!!!!!!,  ",
"  .{!!!!{;;<!!!!!!,  ",
"   .!!!!!!!!!!!!!,   ",
"    .<!!!!!!!!!!!,   ",
"    .<![.......}!,   ",
"    .!)       .}$    ",
"    .|.       .1)    "};
