/* XPM */
static char * 06_petscuted_xpm[] = {
"21 18 37 1",
" 	c None",
".	c #383530",
"+	c #777468",
"@	c #767367",
"#	c #6F6C60",
"$	c #7C796C",
"%	c #38352F",
"&	c #8E6D48",
"*	c #C6A77D",
"=	c #706D62",
"-	c #C4A87F",
";	c #947149",
">	c #797669",
",	c #B1AE9B",
"'	c #726F65",
")	c #817E6D",
"!	c #373630",
"~	c #908D81",
"{	c #6B685F",
"]	c #868371",
"^	c #8A8775",
"/	c #858275",
"(	c #656258",
"_	c #827F73",
":	c #C2BFAE",
"<	c #BBB8A7",
"[	c #7B786E",
"}	c #383531",
"|	c #BAB7A5",
"1	c #8D8A7E",
"2	c #8C897C",
"3	c #7D7A6D",
"4	c #393631",
"5	c #393531",
"6	c #4D4A3F",
"7	c #46433A",
"8	c #4A473D",
"                     ",
"           .      .  ",
"          .+@    #$% ",
"          .&*=. =-;% ",
"          .>,,@',,$% ",
" .       .>,,,,,,,,).",
"!~{      .>,,]],,^)$.",
"!/(      .>,,,,,,,,$.",
"!/(      .>,,,,,,,$% ",
"!/(       ._::<,,[.  ",
"!/,(...}..>|:::::_.  ",
" ./|:::|,,|::::::_.  ",
"  .1::::::::::::_.   ",
"   .2:::::::::::/.   ",
"   .1:'!......[:_.   ",
"   .2#        $3.    ",
"   42'        [_5    ",
"   .67        885    "};
