/* XPM */
static char * 07_petscuted_xpm[] = {
"21 18 42 1",
" 	c None",
".	c #383530",
"+	c #48453E",
"@	c #A19E8F",
"#	c #413E38",
"$	c #A9A694",
"%	c #504537",
"&	c #D6A265",
"*	c #A3A08F",
"=	c #43403A",
"-	c #B4AD96",
";	c #D1995A",
">	c #4B4841",
",	c #B1AE9B",
"'	c #44413B",
")	c #373530",
"!	c #5B5850",
"~	c #4C4943",
"{	c #A6A391",
"]	c #656251",
"^	c #AAA795",
"/	c #615E4E",
"(	c #58554C",
"_	c #B5B2A0",
":	c #928F80",
"<	c #B3B09E",
"[	c #C2BFAE",
"}	c #C0BDAC",
"|	c #A8A593",
"1	c #949181",
"2	c #B4B19E",
"3	c #B7B4A4",
"4	c #58554D",
"5	c #BFBCAA",
"6	c #59564F",
"7	c #A5A294",
"8	c #A4A192",
"9	c #4A4740",
"0	c #403D35",
"a	c #535043",
"b	c #3C3933",
"c	c #575446",
"           .     .   ",
"          +@.   #$.  ",
"          %&*. =-;.  ",
"          >,,*',,$.  ",
"  )      +,,,,,,,,$. ",
" !@.     ~,,{],,^/^. ",
"(_@.     ~,,,,,,,,^. ",
"(:)      +<,,,,,,$.  ",
"(:)       ~[[},,|.   ",
"(,1......~2[[[[[3.   ",
" 4_[[[5,,2}[[[[[3.   ",
"  6[[[[[[[[[[[[3)    ",
"   ([[[[[[[[[[[3)    ",
"   ([7.......+}3.    ",
"   (8.       9_)     ",
"   (8.       +_.     ",
"   (8.       +_.     ",
"   0a.       bc.     "};
