/* XPM */
static char *_7fe704125014c22ca5eda47c6483767F1KWmMyqMmsi6BNT[] = {
/* columns rows colors chars-per-pixel */
"64 64 253 2 ",
"   c #18ACDD",
".  c #1BB1DB",
"X  c #2CACDC",
"o  c #23ADD8",
"O  c #33ADDC",
"+  c #3CAEDA",
"@  c #29B1DD",
"#  c #35B2DC",
"$  c #3CB4DC",
"%  c #37B7D9",
"&  c #2EACCE",
"*  c #16ACE5",
"=  c #1DB2E3",
"-  c #2DACE4",
";  c #27ADE5",
":  c #35ADE3",
">  c #3BADE3",
",  c #31AEEA",
"<  c #29B1E6",
"1  c #34B2E2",
"2  c #3CB3E2",
"3  c #34B3EA",
"4  c #3CBAEB",
"5  c #38B6E9",
"6  c #38B6F2",
"7  c #30B4F1",
"8  c #45AFDA",
"9  c #43B4DD",
"0  c #4BB3DD",
"q  c #4ABBDD",
"w  c #47B8D6",
"e  c #55B5DC",
"r  c #5CB5DB",
"t  c #55BBDD",
"y  c #5BBCDD",
"u  c #54BBD4",
"i  c #40B4CD",
"p  c #63BBDD",
"a  c #68BCD9",
"s  c #44AEE2",
"d  c #44B5E2",
"f  c #4BB5E3",
"g  c #43BBE5",
"h  c #4CBBE4",
"j  c #43B5EB",
"k  c #4BB5EA",
"l  c #43BBEC",
"z  c #4CBBEB",
"x  c #53B5E2",
"c  c #54BCE4",
"v  c #5CBDE3",
"b  c #54B6E9",
"n  c #53BCEC",
"m  c #5CBDEC",
"M  c #59B6E1",
"N  c #4DBBF2",
"B  c #44B9F3",
"V  c #54BDF3",
"C  c #5BBDF2",
"Z  c #57BAF8",
"A  c #4EAFF1",
"S  c #63BBE5",
"D  c #6ABCE3",
"F  c #63BDEC",
"G  c #6BBDEA",
"H  c #72BDE6",
"J  c #64BDF2",
"K  c #6BBCF2",
"L  c #71BEF4",
"P  c #58C3DA",
"I  c #64C3DE",
"U  c #6CC3DC",
"Y  c #6DCADC",
"T  c #66C5D8",
"R  c #74C4DD",
"E  c #7DC6DB",
"W  c #74C9DD",
"Q  c #7DCADA",
"!  c #75D2DD",
"~  c #48C1ED",
"^  c #55C2E4",
"/  c #5CC2E3",
"(  c #5BC2EA",
")  c #5AC7E7",
"_  c #4AC1F4",
"`  c #58C2F3",
"'  c #63C3E4",
"]  c #6BC4E4",
"[  c #6DCAE4",
"{  c #63C2EC",
"}  c #6AC3EC",
"|  c #6DCBEB",
" . c #66CAE6",
".. c #73C5E3",
"X. c #7BC5E3",
"o. c #74CAE4",
"O. c #7CCBE4",
"+. c #74C4ED",
"@. c #7CC4EC",
"#. c #74CBEC",
"$. c #7BCBEB",
"%. c #6DD1E8",
"&. c #7DD0E5",
"*. c #73D1EC",
"=. c #7CD2EB",
"-. c #73D3E4",
";. c #64C4F3",
":. c #6CC4F3",
">. c #6AC8F6",
",. c #73C4F3",
"<. c #7CC4F3",
"1. c #74CBF3",
"2. c #7CCCF3",
"3. c #78C7F9",
"4. c #7ED1F3",
"5. c #7FD5F7",
"6. c #83BDF0",
"7. c #81C5DC",
"8. c #84CADC",
"9. c #8CCCDE",
"0. c #89C6D7",
"q. c #98CCDF",
"w. c #88D1DE",
"e. c #90D0DE",
"r. c #ABD1DF",
"t. c #83C4E4",
"y. c #83CBE5",
"u. c #8CCCE3",
"i. c #83C4EC",
"p. c #8DC6EC",
"a. c #84CCEC",
"s. c #8BCCEB",
"d. c #88C4E2",
"f. c #93CDE3",
"g. c #9BCDE5",
"h. c #93CCEA",
"j. c #9ACDEC",
"k. c #90C7E8",
"l. c #84D3E5",
"z. c #8BD2E6",
"x. c #84D3EC",
"c. c #8CD3EC",
"v. c #85D8EC",
"b. c #8DD9EC",
"n. c #89D8E4",
"m. c #93D3E4",
"M. c #9CD3E5",
"N. c #95DBE5",
"B. c #9CDAE6",
"V. c #93D4EB",
"C. c #9CD4EC",
"Z. c #93DBED",
"A. c #9CDAEC",
"S. c #83C6F3",
"D. c #83CCF4",
"F. c #8ACDF4",
"G. c #85CBF9",
"H. c #8CCEF9",
"J. c #8BC5F4",
"K. c #93CEF4",
"L. c #98CEF8",
"P. c #83D3F4",
"I. c #8BD2F3",
"U. c #8CDAF1",
"Y. c #83D1F9",
"T. c #8CD2FA",
"R. c #83DCF1",
"E. c #94D4F4",
"W. c #9CD4F4",
"Q. c #94DBF2",
"!. c #9CDCF2",
"~. c #94D3F9",
"^. c #9BD3F9",
"/. c #98DBF9",
"(. c #A4CDE6",
"). c #A4D4E4",
"_. c #AAD3E4",
"`. c #A3DAE5",
"'. c #A3D4ED",
"]. c #ABD5EC",
"[. c #A4DBEC",
"{. c #ABDBEC",
"}. c #ACDCE4",
"|. c #B3DBEC",
" X c #BADCEC",
".X c #B3D9E7",
"XX c #A8CFF6",
"oX c #A2D4F3",
"OX c #AAD5F2",
"+X c #A3DBF3",
"@X c #ABDBF3",
"#X c #A2DCFA",
"$X c #A9D7FA",
"%X c #B3DDF3",
"&X c #BADEF3",
"*X c #B3DCF9",
"=X c #BCDEFA",
"-X c #B2D6F5",
";X c #9CE0EC",
":X c #8EE1F5",
">X c #9DE3F3",
",X c #97E0F6",
"<X c #8BE1EE",
"1X c #A4E1ED",
"2X c #ACE3ED",
"3X c #B4E3EC",
"4X c #BAE4ED",
"5X c #B6E9EE",
"6X c #A4E2F4",
"7X c #ABE3F3",
"8X c #ABE4F9",
"9X c #A9E8F6",
"0X c #B4E4F3",
"qX c #BCE4F4",
"wX c #B3EBF4",
"eX c #BCEAF4",
"rX c #B5E2FA",
"tX c #BCE3FA",
"yX c #BCECFA",
"uX c #B5EEFB",
"iX c #C1DCED",
"pX c #C1DDF3",
"aX c #C8E6EC",
"sX c #D7E8EC",
"dX c #C3E5F4",
"fX c #CBE4F4",
"gX c #C4EBF5",
"hX c #CBECF4",
"jX c #C3E5FA",
"kX c #CCE6FB",
"lX c #C4EBFB",
"zX c #CCECFC",
"xX c #D5EDF5",
"cX c #DAECF6",
"vX c #DCE7FD",
"bX c #D5EDFB",
"nX c #D9ECFB",
"mX c #D4E6F9",
"MX c #CDF3F4",
"NX c #C3F2FB",
"BX c #CDF1FA",
"VX c #C5F1F6",
"CX c #D3F1F5",
"ZX c #DAF4F7",
"AX c #D3F2FB",
"SX c #DBF4FB",
"DX c #D7FAFD",
"FX c #E0E8FA",
"GX c #EBFCFB",
"HX c #E8F7F8",
"JX c #F3FCFC",
"KX c #F8FBF9",
"LX c #E4F6EE",
/* pixels */
"{.{.`.`.V.| o.!.W.| M.%.D.qXbX&X^.+.t 0X7.$.W.bXbXbXbXbXnXbXnXbXnXmXjXoX~.K - DX(.SX9.yXnXbXxXnXbX=X~.D.C C } a.C.dXSXSX5XA.A.A.",
"bXbXnXxXBX*X5.X >Xi.].( D.oX].W.Y.z Z.V.A.| rXbXbXnXnXnXnXbXnXnXnXbXzX'.~.V P dXmXz.4XnXnXnXbXnXbX'.~.} ( 0 b.M.GXJX.XM.0XbXnXnX",
"bXbXbXbXbX{.I.4 o.E.$Xf ;.G.F.D.( > AXM.@.K.*XAXnXnXnXbXnXnXbXbXnXkX%XW.G.> A.{.4XE.AXbXnXbXnXnXqXC.F.( m | t.hXKX`.{.bXbXCXCXnX",
"bXcXbXbXjXoX+.7 [ u.dXt % 1 $ N 4 ..xX2XD a.W.@XtXjXlXlXkXjXtX*XoXoX~.,.V 9 {.VXI hXnXAXbXnXxXkX'.~.L C n y.<.cXGXX.zXnXcXbXAXnX",
"bXnXbXbX{.H.m X A.O.qXZXbXzXZ.M 8 VX X9Xp H <.S.S.J.J.F.I.c.D.4.$.L J ` X *.{.1X@.kXnXnXnXnXkXOXC.F.C z *.e.k.xXgXz.bXnXCXbXbXcX",
"nXnXbX-XC.F B z c.6.[.2X>X7X4XfXSXSXp.E.b.y f f 0 0 0 0 0 f e f s 9 # # x.'.CXw ~.*XzXzXkXrXOXZ.L.J c o.(.HXfX&X6XW.xXxXcXbXbXcX",
"AXbXrX~.,.z : A.i.rX .9 ' y p l.[.'.a.X.X.V.Z.Q.:X>X>X6X7X8X X|.+X!.R.A.(.u.DX& T.W.'.oXA.W.^.^.L n y W.A.`.AXf.1XF.bXnXzX=X&XbX",
"bX*XE.+.N O Q.f.5XP s.xXxXxXyX5.S v U I.Z.Z.<XZ.V.V.C.{.$Xt.qX5X>X!.+XQ.v.;XfXc ( ^.^.E.W.E.E.L c c A.A.A.`.BXu.3X} qXnXlX$XoXlX",
"XXK.;.c < Z.M.9Xp 6XnXCXbXnXnXbXbXBXlXrX#XV.y.G m $ + Z.LXh.o.w o.o.o...>.$ [.gXo 3.E.K.T.,.K b ^ C.N.`.bXnX`.s.wXc W.oX^.~.D.W.",
">.( f # Z.|.+Xa uXbXnXbXnXnXnXbXbXbXBXAXbXbXbXzXQ.J N @.0Xx.R NXnXbXAXbXzXE.) gX^ 6 / F C ^ g v I.Z.C.bXbXbXs.W.eXd ;.4.$.} H ~.",
"6 5 { oX3Xs.O.bXcXvXnXbXnXnXbXbXnXnXmXnXnXbXxXxX%XF ~ b.oX] gXCXnXnXbXnXbXrXe 6XyX$ < 7 3 2 $.1Xs.u.BXcXcXBXW.s.{.5X9 A c m m C ",
"l.`.d.lXX.Q.MXcXbXAXbXbXcXnXnXnXnXaX%XjXzXnXnXnXpX:.e 0Xm.$.bXbXvXxXzXnXxXtXz $. XyX>Xv.A.bXZ.f.o.rXbXcXnXbX*XX.j.JXAXB.' g d 2 ",
"Q.7Xg.AX/ =XMXnXnXbXnXnXbXnXAXnXbXzXoXW.@XtXbXnXrX>.v 0XI.C.nXnXbXbX&XxXnXjX<., v.u.).4XhXlXH /.v $XcXCXbXnXlXa.$.dXKXJXJXKXJXSX",
"^ t V.AX/ OXbXbXbXSXnXnXxXnXbXnXnXbXtXoX^.W.+X@X^.F s.V.O.0XbXnXbXbX&XOXbXdXE.m v s.P.+.$.D e :X0 T.-X*X%XrX+XP.d !. XCXHXsXsX6X",
"rXf '.hXI E.tXnXnXbXbXbXbXnXnXbXbXnXbXOX^.I.E.^.j.g 7Xi.! zXnXbXnXbXqXoX*XtX~.v | t.u.b.c.6X6XC.9 z ` >.;.| { z x &X<.g.aXuXI U ",
"lX# +X{.s.G.#XkXnXnXnXnXnXnXAXnXbXbXbXzXoX2.F H.#.c 0XI.W bXnXnXbXxXkX^.W.$XP.j v.y.Q.R Z.s.y.2Xv.] f 9 0 e S P.2X`.VXHXm.' rXnX",
"zXg b.m.gX) ^.$XjXbXxXnXnXnXnXbXbXnXnXbX%XP.m ' k 6XK.l.].xXnXnXbXnXkXoX^.W.>.x z.7XX.VXCXxXlXV.O.@X7X1Xg.c.s.r.HXKX%XG 1XxXbXCX",
"lX#.{ A.gXx 4.^.A.OX*XjXzXbXbXbXbXbXbXbXjX^.G m s VXD.T zXcXCXbXnXnXbX@XW.F.c +.`.O.tXbXnXnXbXjXE.@./ S 4XE.{.GXgXp s.VXxXbXnXnX",
"lXE.+ 9X_.b.j a.W.W.W.W.W.W.oXoX+X'.oXW.oX~.<.` v eXP.b.nXbXnXbXnXnXbX%XW.1.f c.wXO.bXbXnXbXbX@XrX@XS.N z.}.VXQ ] tXbXCXbXnXbXnX",
"bX~.> B.k.yXp 3 N ` :.+.<.2.D.T.T.T.~.K.F.<.G V F  XO.8XbXnXnXnXbXnXbXtXE.D z A.f.rXbXnXbXnXbXdXzX%X2.j 1X2Xd >XcXxXcXbXbXbXnXnX",
"mXI.l I W.p.qX6X[ q O ; ; , : : 2 l h ` ` _ z - N.W.y.kXbXnXbXnXnXnXnXlX~.m  .4XX.nXbXnXbXnXbXbXxX|.,.d gX^ { vXAXbXbXBXlXnXbXnX",
"tXT.4 c A.<.h.C.|. X4XdX0X7X6X6XU.=.( h d d c 6XgX'.o.9XAXbXbXbXnXbXbXjXD.c a.gXy.nXbXSXbXbXnXnXzXoX:.0 zX< s.zXcXbXbX].'.kXnXnX",
"+XD., Z.g.7XQ ' ( { [ &.z.c.6X+Xh.t.V.7X+XM.0XhXk.M.7Xy jXbXnXnXbXnXnXtXT.k V.3Xb.cXbXbXbXbXbXbX%X^.( ' uX< H.xXnXnXzXoXW.zXbXnX",
"^.,.X 7X%XP >XyXhXlX0X+XQ.a./ u W 1.w 8.HX X1X1XAX XlXT 1.0XbXcXzXbXkXOXD.f '.C.o.jXyX$XoXW.oXE.D.,.0 Z.A.- Y.nXnXxXkXW.@XnXnXnX",
"~.J O 7X`.2XnXcXxXbXbXbXnXvXnXBX!.>.z ;XsXC.O.o.w A.gXqXi D.$XtXqX-XA.2.` j M.qX, ( K J F C F v S Z g eXm.- 2.xXnXcXkX].jXnXnXnX",
"D.n 0 $XV.dXnXxXnXnXnXnXnXxXzX*XG.J @.SX|.Q.bXbXyX| o.dX+X# ;.*.<.;.~ 2 O { m.gX2XU c h h h ~ z n f $.{.!.- | jXbXbXlX].zXbXAXbX",
"{ l / +Xz.lX*X{.nXnXxXbXbXxX%XD.v o.SX Xy.xXnXnXbXnXs.U eXV.% < : 2 ^ =.A.V.X.i.M.&XgXbXMXxXfX3X%X0X&Xt.2XO ` oX$X%XC.oXjXtX0XOX",
"C 1 4.).9.tXW.|.nXbXbXbXqXoXH.m 7.AX{.0.rXCXnXbXxXbXbX<Xy qX{.7X{..X&XrXqXwXyX0X[.M.m.u.z.e.m.yX-X$.@.,.1Xd c K.^.^.Q.W.oXW.E.~.",
"B . +X`.O.XX~.dXnXbXCXjXoXW.;.] yX[.Q 0XbXnXnXbXbXnXnXbX,Xu rX$.{.ZXl.Y Y Q u.C.8XuXyXlXlXyX8Xr O.BXh.@.M.#.= J I.^./.~.H.,.G ( ",
"1.B.OX!.#.oXE.xXCXvXkX'.^.,.[ @XA.X.qXAXcXnXbXnXbXbXnXnXBX1.I @X%XO.*.bXbXCXbXbXbXnXbXbXnXbXbXrX} 0 qX{.t.lXg . 5 V n n z l 3 ; ",
"&XaXt.A.P.W.W.bXFXAX$XE.} ' F.C.o.eXnXcXnXnXbXAXnXbXnXnXnXqXl !.).&.c.bXnXbXbXbXnXnXnXnXnXnXnXbXrX>.d 0X%Xy.eX'.^ 4 5 2 q / x.6X",
"I +Xu.z.Y.W.W.zXkX$XE.} h =.W.o.eXxXnXnXnXnXnXbXbXnXCXnXnXkX1.9 4Xc.:.CXcXnXbXbXbXbXbXnXAXnXnXnXbX'.;.d BXj.o.s.`.6X6X6X+Xh.g.).",
"eXQ j.b.n ~.^.W.^.E.+.h $.W...lXbXnXAXbXbXbXnXCXbXnXnXnXnXxXh.O 0X2Xb zXnXbXcXbXbXxXbXnXbXbXbXnXtX^.D.l ) fX#.S.i.h.oX%XhXCXgXz.",
"rXE j.0X8 { J.a.i.' N ) !.7.yXnXAXnXnXnXnXnXnXbXjX|.*XqXlXtXF.5 1X4Xe zXnXxXbXlXnXAXbXbXnXbXzX&XW.Y.{ y {.C.aXSXGXSX4X`.f.y.B.yX",
"$XP %XM.z.7 m C Z ~ c ].W >XbXbXnXbXnXbXAXnXnXnXbXrXW.W.Z.M.3.- 7X3X] ,XnXzX$XC.kXCXbXnXbXlXOXc.,.b [ yXm.ZXKXCX8.t.+X0XlXAXnXcX",
"^. .Y qX].,Xf & 8 o.C.N.F +XvXbXnXbXAXnXbXnXnXbXbXbXzXOX~.p.C q ].[.!.m $XoXW.oXkXcXbXbXtXoXS.F f =.HXu.xXKX[.G lXbXCXxXbXbXbXbX",
"Q.^.n v 2X_.@X9X!.$.W.c ~.W.&XnXbXnXnXnXnXCXnXbXbXcXbXtX~.m s 1X6Xg.VX> +.Q.^.^.tXkXyX-XW.D.F k O.GXaXj.GX6Xx 3XbXnXnXnXnXnXnXbX",
"OX^.Y.n j A.A.<.,.@.{.% D.W.!.mXCXnXnXnXbXnXnXbXnXxXkX+XH 4 | }.] [.iX#.9 } I.^.E.W.C.E.D.J V ' GXGXf.qXCXd G.=XbXxXbXAXbXbXnXbX",
"+X^.~.F F : AXS.l.i.{.u B :.Q.=XxXnXbXbXbXxXxXnXnXjX'.F.` q 7Xj.eXa 3XeXp 2 ` >.` ;.;.C V g v DXSX^.i.cXl.B L.jXnXbXnXnXnXnXbXbX",
"W.L.,.( C $ NXy.W +Xs.0Xv 5 +.oXkXnXSXnXnXbXbXxX*X^.T.{ X 6Xc.pXxXjXP 4XdX,Xo.X.X.y.u.m.V.[.0XM.d.@.i.SX$ >.'.hXvXqXzXnXnXbXzX%X",
"F m C V q +Xf.s.0Xv b.y.7Xc F E.+XzXnXnXFXnXzX$XB.^.L 1 Z.u.OXhXAXnXyXe 0Xr.`.+X@X+X`.Q.c.u.h.Q.W 1X_.NX- J.%XBX@X'.jXcXnXlX'.oX",
"C m v 2.Z.u.m.1XxX7Xk Z.p.y.6 H.W.@XlXbXbXjX'.^.E.>.0 a.C.b.qXbXnXnXbXI.h +Xi.@.F.a.V.%XhXNXbXlX' <X].uX: I.=XbXoXoXzXnXzXoX^.L.",
"{ h.I.d.v.y.+XxXxXqX3.b N.2XX | E.W.OX$X+XC.C.I.L 5 O.A.u.oXbXxXnXbXjX^.1.{ C.@.E.X.yXzXbXnXcXzX' x.1XgX: P.=XnXoXoXzXjXOXW.^.3.",
"M.a.u.P.q +XbXbXbX%X$X^  .5X$.; ~ :.*.D.H.G.:.m 1 l.A.c.M.xXxXnXnXbXOX^.{ c `.Q.c.y.R ..K.oX*X=XG.e aXbX1 2.$XzXoXW.W.W.W.~.#.m ",
"w.z.fX..z E.hXbXnX@XW.| 9 ).0X!./ 2 O 1 - # 1 2 A.'.l.|.BXnXmXjXjXlX'.~.C ' {.y.`.W.V.P.$.p } #.1.# lXgXP C W.tXoXW.^.~.@.D ^ ' ",
"bXT.t wX| G oX=X*XC.>.j o.I.R u._.5XSXAXeXwX8X2XZ.m.lXbXnXvX|.M.'.^.W.2.f V.%XE BXnXgX0XZ.Q.U.$.a y BX'.0X, @.^.Q.'.D.F C b P.C.",
"nXhX,.q gX' >.E.I.G f #.V.'.VXh.I.d.P D y.V.E f.W 8XxXbXnXnXzXzXtX^.^.{ x A.[.s.xXbXnXnXnXjX2XV.U.B.h.@.VX' 6 o.T.D.F n v b.C.|.",
"nXAX+Xb &.A.x ;.` d I.g.b.w ( `.l.Z.BX^.$.v I.h.o.#.jXbXxXvXcXnXdXW.~.d :Xk.A.,XnXxXCXnXnXnXnXbXW.a.z.+.E.BX9 5 V V b | V.).3XxX",
"nXbXtXG g ).#.% p [.A.-.} ` b `.X.CXnX&XW.2.] s.8X+ J.{.tXzXzXyX'.oX,./ oXL Z.A.vXnXzXnXnXnXnXbXkX^.r b.@.M.CXx.y a Z.u.C.0XzXnX",
"nXcXtX<.> !.E.@X3Xn.] 7XdX#.] +XZ.vXnXhXOXjX} O.'.&.4 D.~.$XOXW.^.P.j +X@.a.[.a U.tXjXzXbXbXbXbXZX-Xn b.p.>XC..X%XZ.d.m.{.bXbXnX",
"nXnXtXD.1 OX..V...C.AXbX4X' $.U.@XCXbXAXxXnXrXv P.4X) j G S.H.T.2.m ^ A.V.N.A.E./ D S.W.+X$X*X=X|.^.V z.`.9.OXZ.V.@.D.C.bXCXnXnX",
"bXbX@XD.1 !.b.W gXzXbXdXE.n b.$.jXbXbXnXnXzXbX+.=.i.0X] 1 j N V j 9 4Xj.6XgX..Z.J.l.#.p +.P.H.~.4.K h A.A.zXCXjXo.C.N.oXbXnXnXnX",
"rX[.^.$., [.&.{.bXFXlX'.H.f !.X.hXcXnXnXbXbXbXE./ S.t.|.0Xl.' } F.qX`.%XbXxX9X' s.i.b.6X!.#.( M v k /  XI.bXcXxX#Xy./ A.bXbXbXcX",
"W.oX~.C # {.[ bXbXmXqX^.2.c +Xz.bXbXnXnXbXbXbXoXw ~.W.Q Z.[.{.`.m.N.P.hXzXnXdX] Z.N.x ' Y ..@X!.! F.A.M.[ @XaXjX^.x.t ,.*XnXbXnX",
"^.Y.} 6 o.6Xu.vXbXnX0X^.} -.j.A.FXbXnXvXnXbXjX^.c y.g.6XbXgX+XE.c.m.m <.E.tX@XG.c.m.U.zXbX8XP I !.i.X.$.=.G ;.H.E.a.v.5 I.nXcXkX",
"K F l O `.O.yXvXbXbX7X^.c y.c.wXnXBXAXAXzXzX+X,.Z o.z.8XbXvXnX0XU gXM.[ v y } v >Xe.qXbXAXbXjXS.9 E.@.,.a.h.l.H { ,.+Xo ` +XkXOX",
"_ 3 O ,XM.+.bXbXnXzXoX~.d M. ./.#X^.oXoXW.a.G F 3 !.z.S.oX+XI.1.x [.%XJXJXHXeX`.hXz.aXAXnXcXlX~.d x.O.eXU.U #.#Xc.p 2Xq * ( D.T.",
"* / >Xi.A.#.cXnXnX2XE.+.v W.[ # j k z N N l l : [ [.A.$.*.| | #.Q.i.+.A.CXJXnXE.].M.8XbXcXxX$X2.m $.B.a *.x.^ o =.VXh.A.* * 7 B ",
"6X'.h.6.6Xz tXsXtXoXJ.z -.@.@X+XZ.b.z.O.7.u.b.@XT.+.@.0.p.s.s.y.y.o.@.i.t.d.@.,.oX3X>XbXnXrXF.c =.y.M.zXBXCXxX!., y lX.X&.; * . ",
"n.m.R Z.4X% ~ 2.=.:.V 2 !.@.h.'.'.oX'.A.C.^.a.+.@.A.{.V.Q.b.Z.I.E.C.[.0XVXzX2Xi.y.xXc.cXbXoX1.] ,.a.dXxXFXnXcX=X2.< g ZX.XwXeX0X",
"xXbX!.m 7X5X$ ; 6 > @ [.M.7XN.m.C.l.O.W E N.SXA.7X] o.A.7X@X7X1X+X[.v.| v ] VXLXp.eXQ zXjX~.t c.<.!.cXbXMXCXkX$X$.` ; 7XF.t.F.V.",
"bXbXqXF.m @XeXC. .O.eX{.' y I.!.!.#XQ.1.Z o eX.Xs.A.bXnXAXnXnXbXAXxXnXnXyX<.X 0XdX9.../.V.<.^ 1.d.tXbXnXkX-XoXW.,.( 1 ;XV.=.m.hX",
"tX&X$XW.>.m b.g.].fX!.F 9XBXAXnXbXnXnX+X` I 4X4XI AXcXnXnXnXnXAXbXnXnXAX@X^.N % hX6.*.v C k #.@.W.zXbXkXoXoX^.P.C m 2 rX| ] jXjX",
"1.+.+.} C f V.@.{.GXw ;.gXnXnXnXnXbXBXs.# wX9.[.A.FXMXnXnXnXbXzXzXzXdX|.oXD.^ o gX@./.x f l.{.2X|.xXzX@XC.Q.2.S m m V.-.  2.~.D."
};
