/* XPM */
static char *fae1072b110746328ac15d773f9a827cjZCl3CImuDh43rkk[] = {
/* columns rows colors chars-per-pixel */
"64 64 130 2 ",
"   c #474644",
".  c #494745",
"X  c #494846",
"o  c #4D4C4A",
"O  c #514F4D",
"+  c #51514F",
"@  c #555452",
"#  c #585655",
"$  c #5A5957",
"%  c #5D5C5A",
"&  c #605F5D",
"*  c #61615F",
"=  c #656462",
"-  c #686765",
";  c #6A6866",
":  c #6D6C6A",
">  c #706F6D",
",  c #71716F",
"<  c #757472",
"1  c #787775",
"2  c #797876",
"3  c #7D7C7A",
"4  c #807F7D",
"5  c #81817F",
"6  c #848382",
"7  c #888785",
"8  c #8A8987",
"9  c #8D8C8A",
"0  c #908F8D",
"q  c #8F908B",
"w  c #91908E",
"e  c #959492",
"r  c #989795",
"t  c #999896",
"y  c #9D9C9A",
"u  c #A09F9D",
"i  c #A1A09E",
"p  c #A5A5A3",
"a  c #A8A7A5",
"s  c #A7A8A7",
"d  c #A9A9A7",
"f  c #ACABA9",
"g  c #B0AFAD",
"h  c #B1B0AE",
"j  c #B4B3B1",
"k  c #B5B4B2",
"l  c #B6B5B3",
"z  c #B6B6B4",
"x  c #B7B6B4",
"c  c #B5B5B3",
"v  c #B8B7B5",
"b  c #B8B7B5",
"n  c #BAB9B7",
"m  c #B9B9B7",
"M  c #BABAB8",
"N  c #BBBBB9",
"B  c #BCBBB9",
"V  c #BDBDBB",
"C  c #BEBDBB",
"Z  c #BEBEBC",
"A  c #BCBCBA",
"S  c #C0BFBD",
"D  c #C0BEBB",
"F  c #C1C0BF",
"G  c #C2C2C0",
"H  c #C3C3C1",
"J  c #C4C4C2",
"K  c #C5C4C2",
"L  c #C5C5C3",
"P  c #C7C7C5",
"I  c #C4C3C2",
"U  c #C9C7C5",
"Y  c #C8C8C6",
"T  c #CAC9C7",
"R  c #C8C8C6",
"E  c #CACAC8",
"W  c #CBCAC8",
"Q  c #CCCBC9",
"!  c #CCCCCA",
"~  c #CDCCCA",
"^  c #CDCDCB",
"/  c #CFCECC",
"(  c #CFCFCD",
")  c #CDCCCB",
"_  c #D0CFCD",
"`  c #D0CFCD",
"'  c #D1D1CF",
"]  c #D1D0CE",
"[  c #D3D3D1",
"{  c #D4D3D1",
"}  c #D4D4D2",
"|  c #D5D4D2",
" . c #D5D5D3",
".. c #D6D6D4",
"X. c #D7D6D4",
"o. c #D7D7D5",
"O. c #D5D4D3",
"+. c #D8D7D5",
"@. c #D8D8D6",
"#. c #D9D9D7",
"$. c #DAD9D7",
"%. c #D9D9D7",
"&. c #DADAD8",
"*. c #DBDAD8",
"=. c #DBDBD9",
"-. c #DCDBD8",
";. c #DCDBD9",
":. c #DCDDD8",
">. c #DEDDD9",
",. c #DCDCDA",
"<. c #DDDCDA",
"1. c #DDDDDB",
"2. c #DEDDDB",
"3. c #DFDEDB",
"4. c #DEDEDC",
"5. c #DFDEDC",
"6. c #DFDFDD",
"7. c #DEDEDC",
"8. c #E0DFDD",
"9. c #E0DFDD",
"0. c #E0E0DE",
"q. c #E1E0DE",
"w. c #E1E1DF",
"e. c #E2E1DF",
"r. c #E1E0DE",
"t. c #E2E2E0",
"y. c #E3E2E0",
"u. c #E3E3E1",
"i. c #E5E4E2",
"p. c #E3E2E0",
/* pixels */
", 1 1 , - % & 3 s s f % : G ,.,.a e 2 , f t 9 7.7.7.7.7.7.7.7.7.7.6.N d i 7 + q i > d 4.4.4.4.4. .d d 7 5 1 p s i 7 < , : % = ; ",
"u.u.u.u.,...5 o 2 p d % , h 6.^ a 7 * 5 i * V 7.7.7.7.7.7.7.:.7.7.7.o.d y 5 % p 7 $ w.4.w.:.4.4.P s s 5 5 $ f i : : ; * w ^ o.6.",
"1.1.,.1.q.<.d 4 @ < d + 5 f s f t = $ a % 8 N 7.7.7.7.7.7.7.7.7.<.7.^ d 9 * , 2 : ' <.7.4.4.4.w.s s 7 5 5 8 8 > , 4 :.9.6.7.7.7.",
"4.4.4.1.q. .d 7 o 2 w   * - 3 6 7 + , y , 9 d ( o.w.w.w.q.>.$.~ l s f e ; o i : % 6.6.7.4.4.4.V p f 5 5 # f 2 > + :.9.:.<.7.<.7.",
"4.4.<.q.<.z p 3 @ 7 9 * $ + X + % * , w 2 7 f s g h v x h f d a d p t 5 o $ e + w ,.<.7.<.&.8.d f t 5 * , s 3 , $ <.7.6.6.6.7.7.",
"4.4.<.q.f f 4 @ 5 f f e 9 e 1 > ; , 5 t % 3 7 5 5 5 5 5 3 2 1 4 5 8 5 $ ; y , 9 d 7.<.6.q.H d d e 3 2 9 s < q > 2 q.7.6.7.7.6.7.",
"4.6.4.z p 7 : * s s - X @ + $ - w a d a d i 7 1 2 1 1 1 2 3 3 3 2 2 3 9 d y * t s s d d s d a p 6 5 , 5 % > s , < w.<.6.L } 6.6.",
"1.1.&.d 7 5 o 9 i 2 o z ,.@.3 $ + : 3 w i s f s f a s a g f a t r t y y 7 e = < f f d d d p d 9 5 $ i % p , f 3 > q.,.,.h V w.7.",
"T s d 6 2 @ 5 e % + 6.7.w.6.q.<.,.&.G y , * $ @ + + + = > y :   + o o + O . 4 . : a a d a 0 7 5 = i $ <.e.: i i % s B l d d f @.",
"p 7 5 : # 7 5 o @.q.q.7.7.6.<.7.7.,.6.7.7.7.:.( f 5 3 o 8 = & u.q.<.7.7.D u 4 & . 4 4 4 7 5 , ; s = 7.<.q.h t a + e i i 8 9 d f ",
"7 4 1 X q y = y q.7.7.6.6.<.7.,.7.7.7.,.7.,.7.7.G 5 5 + y + N 6.<.7.7.<.9.f & , # & 4 7 5 * O i > 8 q.7.7.K 9 f ; : 5 5 5 5 w y ",
"O & 1 s < # ( 4.7.7.7.7.6.7.:.7.7.' P 7.,.7.7.7.,.6 , & p s 6.1.7.q.,.7.9.S o u 4 & O O $ 3 4 t g w.7.7.7.:.* 9 , ; + o % ; ; = ",
"> & > u @ 8 ,.,.,.6.1.6.7.,.,.:.7.@.h f h E q.q.} 9 @ < 9 ,.1.6.7.7.f 6.7.^ 4 O > g t i 9.g ; < g  .7.7.q.q.f : t : > , , , : 7 ",
"  . & u @ q } 4.6.6.6.1.7.6.6.6.q.w.Y s d s N  .j 8 % 5 1 6.6.6.6.,.f ,.7.E 9 @ @ r f ` g 4 ; & f g @.7.e.' a 9 w , , , , 7 w , ",
"9.1 O a = - f 6.,.1.1.6.1.6.6.1.6.q.q.f s f s d s 1 1 s @ &.,.1.7.7.x f w.S y & : p u e 4 < : - 5 8 e t t w 8 < ; h f i , % o B ",
"-.0 . p > o f ^ ,.6.,.1.6.1.1.6.7.7.7.&.a a 5 s u + y s 2 6.6.4.7.7.^ s j h 9 $ u 0 & f F : # e ; + + # + + * , p , , = < q.<.<.",
":.i X w , % a i q.<.<.<.6.6.7.7.<.7.<.6.f f 5 7 6 % f y j ,.6.4.4.<. .d a f 5 > d = ( <.<.q.d * e t 5 , < 6 y p 1 > @ & 7.7.q.7.",
"q.h 2 : t , 1 g s s P 6.6.6.6.7.6.6.q.q.( s 7 5 3 > s % ,.4.1.4.4.8.<.a f u > p 9 , 4.<.<.4.4.f 9 3 # ; 2 f , , * 1 7.7.7.7.q.7.",
"q.h f + a 9 o 9 d d d d d s d d d d d d d d t 5 : 5 1 < 4.4.4.4.4.q.-.f p 7 o e = q.6.6.6.<.4.s ( f 5 + , , + * &.7.7.w.q.7.7.7.",
":.h a X w a , . = , 5 6 7 8 w w t u y y w 9 3 4 o e + ( 4.4.4.4.4.4.<.h 0 5 : ; $ u.4.4.4.q.u.6.^ f 5 * 7 X o.6.7.7.6.7.7.7.7.7.",
"7.f a + 5 a w , + X o @ $ & = = ; 3 4 5 5 5 5 $ @ u $ ,.6.4.4.4.4.4.4.l 7 7 6 * 7 ,.6.6.6.4.<.q.F f 5 : 8 + 7.&.:.7.0.7.7.7.q.7.",
"7.d t % 2 f a t y t t t r w q q 8 , ; # O o + , > p . V 6.1.4.4.4.4.4.m 5 2 e @ } <.4.4.4.<.6.<.s f 3 , ; 5 7.7.7.&.s f w.7.7.7.",
"7.f 9 . i 8 + * < > $ o o + & = 7 r 0 < 7 a 7 7 y a : X S ,.4.<.4.<.8.d 7 : 9 * @.<.6.4.@.8.,.N f w # 5 # 8 7.&.7.7.f i 7.7.7.7.",
"^ s 5 + a , w >.1.:.,.^ C s = + + @ o O > u : ; : e < $ i @.4.6.<.q.@.f 5 , 7 * h ,.K f d h f s w 5 + w # 7 7.>.:.7.s f w.7.w.7.",
"s 9 6 $ t & 9.q.<.7.<.7.7.7.7.7.f 9 5 * 9 > T m , $ 5 y X f s S v f p 7 3 @ 7 o % 5 5 6 5 6 6 6 7 4 - t $ 4 9.9.6.w.s P 7.7.7.7.",
"d 5 3 * 9 % 9.F <.<.7.7.7.@.7.C t 4 $ , = y <.7.<.@.X ; e + $ 6 3 : * X $ < f 3 > : & & & * * = # # 4 r & 1 g -.7.G g ,.7.7.&.m ",
"r 6 < - 5 * X.p q.7.7.7.q.q.l s 5 $ , t , 7.w.6.7.@.5 o 3 = o + o . o * 9 p d f s w 9 7 7 q q e 7 3 a t = < a f j f h &.} x f f ",
"6 3 @ 1 ; w f a 6.7.7.6.+.f y 5 % , u # &.w.7.7.6.<.@.q.X 1 y q y r 9 2 : : = % @ + $ $ % + + : i d g i ; $ u d s s f s f f i 9 ",
"@ . O u $ u f B 7.6.7.F a f 3 $ w < $ 6.,.6.6.7.7.7.7.<.( O * d < o % z @.<.q.q.6.,.6.6.6.<.} < % , p d 7 o < 4 t y w 8 4 5 5 = ",
"& $ - f & g a U 6.6.q.d f y @ 5 y % S 6.7.7.6.7.6.7.<.q.,.2 X w < @ ^ 6.q.<.6.7.,.,.,.6.6.,.6.f $ + 2 f u & . & 4 5 5 5 , & O O ",
"8 ; 5 r 9 f a X.q.q.z s 9 $ a y * 7.<.7.7.7.7.7.7.7.7.7.:.G t & e + S 6.6.6.6.<.6.6.,.6.<.6.6.6.s 9 O < u i , : @ # $ $ = 2 7 i ",
"D & > 0 , i f h h s s 7 < i = ; q.7.7.7.7.6.6.7.7.6.7.6.6.@.p o r X e 6.<.<.6.6.,.6.6.6.<.6.<.<.l d 3 $ : f a a f a f f t 3 , % ",
"9.< - r & 7 d f f a r 5 @ y * @.4.6.4.4.4.6.6.4.4.4.1.,.w.} s # 7 + 1 6.7.6.w.6.4.4.4.0.4.1.8.4.f d 6 . > a s d i t 7 < , = @ s ",
"4.9 # f $ % 4 9 7 7 5 * t $ @.i.4.4.4.4.4.4.4.4.1.p f f G f s $ 5 = + 7.6.7.( } 4.4.4.4.1.1.F d e 7 $ 3 i 2 : < ; # % : z u.4.4.",
"..s % 3 w : O < 1 - # 0 # h <.q.4.4.4.4.4.4.4.1.4.4.z s s s 8 X y , @ z } h p C 4.4.4.4.) s p 6 = # 2 p < , $ & q.q.8.q.4.4.6.<.",
"Y d 5 * y r & o O + r - # f <.<.1.4.4.4.1.4.4.1.4.4.1.V f 8 4 @ f , * y p f s S 0.1.0.1.f i 6 5 # : y 3 , : 3 @.<.4.4.<.4.4.4.<.",
"#.s s 4 O * i a a a a o r p j @.1.4.4.4.1.1.4.1.4.4.4.&.u 4 # 6 - i , $ e s s s c z d p i 3 7 @ > < f : > - N q.q.4.6.<.4.4.4.,.",
"0.s f i 6 1 * d f f u . ; t d l 1.,.1.4.4.4.4.,.1.4.f f 6 o - < p : i & 1 5 t i e t e 9 6 3 o > < y y : o r K q.6.4.<.4.4.,.u.<.",
"N s a u 6 4 O u u r i $ + 7 a p 6.4.4.4.4.4.4.4.<.H f p 6 $ 6 w :.@ > 1 O = 5 7 6 4 3 3 < O ; < p a 0 & # y ' 4.6.4.6.4.4.<.4...",
"s r 7 5 5 < - a ; , 4 u 5 o 7 p S 4.4.4.1.4.4.( f f e 5 o y e 0.:.0.6 > w 1 > : : > < 4 9 t t 9 9 e 4 o 1 s q.<.s ' 6.4.6.l s s ",
"7 6 6 3 $ 1 f = <.7.% q f : 3 e s H 4.4.4.u.z d s y < o 9 8 t 4.4.w.@.3 : e s d f 8 > y O.u.q.f @ 1 1 o 9 f 4. .d @.q.,.j f s t ",
"6 6 1 $ r p 8 z 7.7.7 * t 3 ; 7 f s z -.4.( s f s 6 O % s < ,.0.4.4.&.d + : s f 0 6 ;.q.1.1.q.d @ 1 1 o 9 f 4.E d <.,.6.s d f 5 ",
"* r s s 5 $ @.6.7.q.f , + y X * e d d s d a a 7 6 o 3 d ; 4.4.4.0.&.f d , + s y : 9 h x ) 0.0.F + : 5 o 2 s w.N d G d d f p 7 6 ",
"; : 2 1 1 6 I 6.6.,.d w < 3 2 =   @ @ = : < 3 o @ 9 9 > 4.1.4.q.w.H s u : # 0 ; 3 p 2 % < r p s - $ y @ $ s :.S d s f d 7 7 2 : ",
"A < # < $ 3 g 1.<.^ d 7 < 3 y 5 ; $ # + X X X = > p 9 -.4.q.O.M G f f e $ = 2 [ 1.0 8 y ; - 1 8 - O y = o y V c f s e 6 6 ; & u ",
"p.1.F * 1 , 7 s d d 7 $ # f y s d 2 - ; 7 y e f 9 I 1.&.1.8.Y A s s s 6 % w $ 7.,.,.,.#.A 1 6 0 < < s > * < p d f 8 5 6 $ p 7 G ",
"0.1.<.e O 2 % 8 7 5 + y f % $ < 9 s q.f 3 @ i w = p 8.4.4.4.8.y.H g p * w f @ 7.0.1.,.0.,.0.,.Y > 6 s d 2 o 3 5 5 5 % , i u u.<.",
"1.6.1.f : @ u % + * y * @ t o 5 @ <.<.^ f d @ d 7 @ a d ' q.8.X.s s 6 = s f $ 7.0.0.,.0.,.4.7.0.s i $ d f 1 % + o - s u N ,.:.7.",
"6.6.6.g 2 O a # : w = 2 { p O w = ,.4.6.s N 1 t i o q s a D D a s r < 3 f a # I ..0.,.0.1.1.1.1.C i $ f a i , , , i i > &.7.7.7.",
"1.6.1.x 5 O a g % % 9.<.9.u $ y u ,.6.6.@.<.F $ w 2 o < 0 d a a y 1 O f - & u $ 1 y s s b Y ) ) s i # 7 # 3 > 9 h f 8 7.7.7.7.7.",
"9.1.1.s 4 O p & e.<.9.{ g 7 ; y } ,.,.6.<.6.u.9 + d 2 % O 1 4 4 = & 4 > -.&.% f s : = 2 t p s p 8 5 + * U q.q.v ; : C q.7.7.7.7.",
"0.O.A s 3 o s * 9.9.9.g d 7 1 e ,.6.,.,.6.,.q.y % f i 3 & O . O O 3 7 { q.-.5 t s f 9 > - 6 7 5 5 5 $ * ~ q.q.] * + h 7.w.w.7.7.",
"f f s s : o e ( *.*.2.f f , y ; 6.,.6.6.<.<.<.s 8 0 7 & 4 u e 8 a % k y.8.4.k % y ; X o # 6 7 < : 2 i * h e.:.+.: O y N &.7.7.( ",
"f s y 6 X = $ 4.*.9.*.d p O 0 : 6.,.6.,.<.4. .d 7 = & j 9.9.U < p @ 7 9 v L p $ < # ,.4.9.g % & i s a 4 : 2 i g = = 1 r 7.7.&.s ",
"p 7 6 3 @ 8 $ &.2.4.| p y @ : r ,.6.6.6.,.6.l e 4 & O S 9.9.9.W = = % 2 6 w u @ > > 4.4.1.;.c @ 5 f f f f , 5 e < 1 $ 5 ^ >.F f ",
"4 5 - o e r N 0.9.4.b d 9 < @ u h f f N z p 7 7 4 = @ e g f a u @ y 3 > > < % < 3 6 4.4.9.1.A 9 * s r = * % 8 , = e X X 5 s f y ",
". + * p s > 1.6.2.&.d 0 < r % X = ; > 1 3 2 ; o # u 0 < = % % - y a f u < : w f 5 : 1.9.9.S s 2 p s O F ' B O . , s = X o & > < ",
"# 4 u s p ; M 1.&.z d 6 & p 3 = % # @ o o + @ , 7 a f d p u p a a f a p p p f a 7 % 1.;.9.d r % f w h 1.1.1.D = @ 2 7 % o o o . ",
"3 * 5 + u > O u p y 5 O % d p p p y i p i s d d a y > - = = - = = : > < 3 3 a f r @ 1.9./ y 3 p y 4 q.1.1.9.{ a ; o , y < > 1 r ",
"4.6.q.s @ 5 - . O $ . < y : # O + o + o o o : y 9 O { 8.8.u.q.y.y.q. .g + O , 9 s : i.$.a 6 = f 6 0.1.1.1.O.a f 5 * : q f 4 > g ",
"1.1.&.g 1 @ 6 * o . * 0 > . 9 p s d p 8 1 % ; u < f -.4.8.4.8.4.9.8.9.9.g < @ > y 3 h f s 4 ; s s 0.0.0.$.d d p 6 ; : t 0 y 9.9.",
"E P S s s 9 * f y y < : B 9.2.4.1.4.<.z 5 o 5 < O 8.4.4.1.1.-.8.-.9.9.8.d p $ > 9 s ; 6 6 # t y 1.q.w.s d d p 6 4 & 9 - e -.Q n ",
"7 5 5 4 5 7 @ s y 2 % 4 s 4.2.2.1.4.4.i X - f $ t 8.4.4.4.1.4.-.{ I k a a r > ; 0 s % $ * 9 2 t ,.1.Z s p u 4 4 1 8 o o r y 0 7 ",
"3 < > - * % o s s s ; 1 y ,.4.4.1.4.4.e $ 2 a O Q 8.4.4.4.4.4.f f a f d a e - > w s r 8 1 : * p.1.6.s s f 7 7 4 8 < . . > 5 5 5 "
};
