/* XPM */
static char *_9875f85489247e094f7ba6c648d530dRib57USFpPTroWgd[] = {
/* columns rows colors chars-per-pixel */
"64 64 256 2 ",
"   c #1A1708",
".  c #1D1613",
"X  c #1D1A14",
"o  c #1C1B1B",
"O  c #161917",
"+  c #171413",
"@  c #2A0C06",
"#  c #380B06",
"$  c #24130C",
"%  c #2B140C",
"&  c #261808",
"*  c #32130C",
"=  c #381508",
"-  c #280D18",
";  c #350B16",
":  c #231B1C",
">  c #2C1B1B",
",  c #261716",
"<  c #361817",
"1  c #16230C",
"2  c #1B2218",
"3  c #25241A",
"4  c #38281E",
"5  c #2E3217",
"6  c #1C1B24",
"7  c #261A24",
"8  c #301A26",
"9  c #172322",
"0  c #2D2B25",
"q  c #292625",
"w  c #332D2B",
"e  c #3B2D2C",
"r  c #362824",
"t  c #2A352C",
"y  c #34332D",
"u  c #3B332C",
"i  c #323A2C",
"p  c #383626",
"a  c #372C35",
"s  c #2E3733",
"d  c #353332",
"f  c #3A3433",
"g  c #323934",
"h  c #3B3A34",
"j  c #34333B",
"k  c #3B343A",
"l  c #3D3B3A",
"z  c #333939",
"x  c #2C223B",
"c  c #470E07",
"v  c #46170A",
"b  c #541708",
"n  c #481718",
"m  c #5A1716",
"M  c #4C0B10",
"N  c #691B17",
"B  c #6D1510",
"V  c #452318",
"C  c #582518",
"Z  c #502C14",
"A  c #672519",
"S  c #782A19",
"D  c #7A3519",
"F  c #62290E",
"G  c #4E1523",
"H  c #6B1A24",
"J  c #452C2C",
"K  c #572724",
"L  c #42332B",
"P  c #593128",
"I  c #462C36",
"U  c #423332",
"Y  c #433339",
"T  c #423C3B",
"R  c #483B39",
"E  c #573A37",
"W  c #5B2A30",
"Q  c #6C2827",
"!  c #7A2826",
"~  c #6A3629",
"^  c #77332A",
"/  c #643D3C",
"(  c #683935",
")  c #773636",
"_  c #7A2C33",
"`  c #3B443B",
"'  c #324623",
"]  c #44423D",
"[  c #4A433D",
"{  c #4C4A3D",
"}  c #454A39",
"|  c #55453C",
" . c #51493E",
".. c #584437",
"X. c #4B523A",
"o. c #654238",
"O. c #784629",
"+. c #3A3B42",
"@. c #443B44",
"#. c #563D43",
"$. c #492940",
"%. c #673C47",
"&. c #3C4343",
"*. c #3B5245",
"=. c #454542",
"-. c #4C4644",
";. c #454B44",
":. c #4C4946",
">. c #4C464B",
",. c #444C4B",
"<. c #4C4A49",
"1. c #45464A",
"2. c #524544",
"3. c #594343",
"4. c #514944",
"5. c #52454B",
"6. c #534B4B",
"7. c #5A474B",
"8. c #465247",
"9. c #4B4854",
"0. c #524452",
"q. c #564855",
"w. c #535451",
"e. c #61485F",
"r. c #981D0E",
"t. c #A81D19",
"y. c #B51C1A",
"u. c #A61C04",
"i. c #9A2B07",
"p. c #9C3507",
"a. c #892919",
"s. c #97291A",
"d. c #89331A",
"f. c #953518",
"g. c #88320A",
"h. c #AA2905",
"j. c #B52B02",
"k. c #BB2D02",
"l. c #BC2C0B",
"z. c #B62709",
"x. c #A73803",
"c. c #BD3300",
"v. c #B83705",
"b. c #AB241B",
"n. c #A72819",
"m. c #BA2514",
"M. c #B92819",
"N. c #A8331A",
"B. c #BA3516",
"V. c #891B33",
"C. c #A91D26",
"Z. c #B71E26",
"A. c #892A27",
"S. c #9C2B24",
"D. c #922B2A",
"F. c #9B2A2C",
"G. c #972726",
"H. c #873528",
"J. c #943526",
"K. c #982A34",
"L. c #893736",
"P. c #8E3035",
"I. c #A62826",
"U. c #B72626",
"Y. c #AE322C",
"T. c #CA1D12",
"R. c #C22501",
"E. c #C42B03",
"W. c #CB2D02",
"Q. c #C82709",
"!. c #D7290B",
"~. c #C43201",
"^. c #C33B00",
"/. c #C63709",
"(. c #D33805",
"). c #C72817",
"_. c #D72819",
"`. c #C73716",
"'. c #D43713",
"]. c #E32E11",
"[. c #D91F24",
"{. c #C92825",
"}. c #D82825",
"|. c #CD302A",
" X c #E33429",
".X c #E81E1D",
"XX c #A84402",
"oX c #B64601",
"OX c #B6540B",
"+X c #AC511F",
"@X c #C34301",
"#X c #C94702",
"$X c #D54803",
"%X c #C95503",
"&X c #D55804",
"*X c #D25016",
"=X c #E65112",
"-X c #CC6504",
";X c #D66605",
":X c #DA7915",
">X c #D56F0B",
",X c #E56808",
"<X c #E57609",
"1X c #E66914",
"2X c #E9781B",
"3X c #F77915",
"4X c #F86A1A",
"5X c #EE562D",
"6X c #F4712C",
"7X c #D0582D",
"8X c #BB5644",
"9X c #F87C47",
"0X c #EE5243",
"qX c #DE900E",
"wX c #F78A19",
"eX c #F69618",
"rX c #E98B0F",
"tX c #F9BB08",
"yX c #FEAB19",
"uX c #FEBC14",
"iX c #FFB41C",
"pX c #FEBC1B",
"aX c #F7B715",
"sX c #EFAD0A",
"dX c #DF9024",
"fX c #F88A29",
"gX c #FC9825",
"hX c #FE8B33",
"jX c #FE9736",
"kX c #E7842A",
"lX c #FEAC24",
"zX c #FFAC2B",
"xX c #FEA427",
"cX c #FFB322",
"vX c #FFBA23",
"bX c #FFB42A",
"nX c #FFBC2D",
"mX c #F6BB21",
"MX c #FFA839",
"NX c #FFB332",
"BX c #FFB836",
"VX c #EDA923",
"CX c #DEA800",
"ZX c #E9C202",
"AX c #FCC304",
"SX c #F9C508",
"DX c #FEC313",
"FX c #FBC517",
"GX c #F0D00E",
"HX c #FDC225",
"JX c #FFC434",
"KX c #FF8746",
"LX c #FE944C",
"PX c #FFA844",
"IX c #FFB848",
"UX c #FFAE54",
/* pixels */
"4.6.;.:.<.4.L Q i.oXtXiXn.0 a ` e U @ M.gX>XD ] 4.{ <.:.:.:.:.:.<.:.:.-.t y < Z.&X].I./ } | :.:.4.:.y f   O S MXxX~.}.{.I.^ ..2.",
"6.<.:.:.:.:.T i a.M.nXiXa.3 u p I w ! ).lXs.J l 1.>.>.>.<.>.<.>.>.>.:.R L t A.E.PX{.^ :.:.>.:.:.<.T y r X , x.DXc..XU.)  .:.:.4.",
"<.6.:.:.:.:.f f M b.VX<XA., ; o o + I.E.nXb e k 5.7.<.5.5.7.5.6.:.=.l d z X C.;X@XD.3.,.5.<.:.:.:.d d : X v JXuX_._.) 0.<.:.:.:.",
"w.:.:.:.:.h f X S Q.nX;X X).|.n.I.K.`.wX%X- w f k u y w d w d e d f h : q C j.gX|.L <.<.:.;.:.6.d w q + ; XXuXvX_.).7.0.{ :.:.4.",
"<.:.:.<.:.y 0 7 Y.;XAXpXhX6XKXR.).}.k.cX;XN % . : . . , , % % * @ @ & @ A t.zXQ.s.w >.:.-.<.:.f e f . < f.NXk.pXk.M.:.5.:.:.:.:.",
"w.:.<.<.U s $ b v.HXuX#Xy.Z.n.#XjXjXPXtXtX4Xv.p.i.f.f.n.N.M.).`.M.n.n.i.i.(.tX_.J.e a T ` d d l d q X J.xXc.).zXc.Z.:.:.,.:.T :.",
"w.5.5.5 u   Q m.aX1XB.H... . .o.^ s.z.k.@X>XqXVXcXvXHXvXiXtXAX>X%X#X#X%X&Xv.&X).G.y i h L J p z   : G.UXE.( B.=XxX{.U :.6.-.y T ",
"2.R p x + A h.lXv.{.L.7.<.<.6.4.2.>.2./ ) A.s.s.s.n.s.b._.k.cXM.b.S.G.G.F.L.u.6XU.Q u s d s p 3 . K.-Xv.%.<.L.W.uX).u z T d f d ",
"d s 7 X n z.jX%XU.O.6.5.;.:.<.,.,.{ :.<.{ :.<.<.@.k : = {.1XfX) o.4.:.5.2.>.S l.k.K.% q > , + & D.kXeXE :.-.E v.tX/.4 s ` d : w ",
"X % m s.oXgXl.D.4.&.{ :.5.4.:.4.:.<.5.5.>.<.>.<.5.d :   {.BXi.6.<.,.<.9.9.} $.i.UXm.S.m @ = H n.xXbXL.5.:.2.*.a.uX^.I.b % , : . ",
"s.f.h.eXjXU._ 2.:.<.>.<.:.<.:.:.:.:.=.:.:.4.:.,.<.T : @ W.yXH.>.:.:.:.<.6.<.k ! '.R.).I.s.y.`.8X>Xx.| <.6.<.<.J OXwX_.M.s.A.H m ",
"0X5X=XyX^.G.Y :.:.<.<.<.:.:.<.:.:.:.R f d -.<.:.:.h X m ;X>X( :.<.:.<.T 6.<.+.# n.gXMX5X=X8X..7 PXQ 9.:.5.:.:.f b kX!.[.[.|.).{.",
"J.H.U.gXW.! s :.:.<.:.<.:.4.<.:.:.4.w.d u d y e T y   U.FXz.#.:.<.6.<.d =.5.` 0 # j.xXB < = & # 7X# 0 l =.8.] d q S xXE.E.W.=XhX",
"7.<.G.2X1Xa.p >.>.6.<.:.:.:.:.:.:.:.:.:.d y u f d U M `.aXS.9.<.:.:.:.f w 2.d g % oXZXbXPXKXY.f.6XC x 0 0 t 0 3 # U.FXsXnX=X!.Z.",
"q.8.D.(.lXU.L d 6.:.:.>.:.:.:.6.:.:.:.:.] d 7 7 z < P.#XjXH.1.:.>.<.:.T z e f 0 v MXpXc.a.S.h.W.bXp.a.v = v C ! n.v.cX-X[.M.a.E ",
"6.<.^ z.HX}.S d d -.<.5.>.,.<.-.:.=.-.:.:.d t . o c B.pXh.2.>.<.:.:.>.:.p k k $ a.HX`.( ;.1.*.3.Y.z.1XjXhXeXyXzXgXW.}.).A.| -.:.",
"w.:.W b.<XR.n.p d e h ` 5.4.:.:.2.2.5.6.:.] u $ : ^ W.iXJ.| >.-.:.>.<.<.s e w & z.&Xs.2.7.>.#.,.z K ! D.Y.k.FX&X!.}.s.( 3.4.:.:.",
"w.:.L K.~.3X{.# U f Y I d y d g z k l h d y u 3 O D.=XzX( -.,.:.:.:.:.<.z p . C 6X`.( ,.>.<.<.:.y +.+.  A {.wX X{.P...-.9.:.:.;.",
"<.<.i m y.vXv.n.m &   2 3 r y d i i u y h d w . - N.3Xv.2.5.<.>.>.:.-.:.f j 1 n.IXF.:.>.} :.<.5.[ { u 6 ! ).x.! { >.>.:.{ <.:.:.",
"6.<.j @ n.FXpX'.M.U.F.D.! H N N m M * , X o X , m v.IXs.] #.{ <.:.:.:.:.[ U $ j.%X) >.5.-.9.:.5.>.,.y , S.=Xs.a 5.>.;.<.0.-.:.>.",
"<.:.t 8 I.CXtXaXzXhX6X'.c.j.j.z.j.b.h.n.Z.P.S.s.t.~.sXb.-.,.-.:.:.5.-.-.,.t c %X}.3.:.<.<.>.>.>.>.>.d < Y.5XA +.:.:.<.-.d T :.>.",
"6.] t m U.NXE.M.U.t.I.b.Z.M.j.oXeXFXuXFXlXcXzXKX4XJXsX!.Q } -.:.:.:.-.:.T r N jXM.=.8.,.<.<.:.5.5.f w M T.7Xc &.-.:.:.] d =.-.-.",
"w.h 6 a.m.$XS./ 2.5.>.3./ ( ) s.s.M.n.J.y.Q.&X{.'.v.jX'.s.I 1.[ :.-.4.-.f 0 Q LX{.f 6.>.Y a a k f d o _ _.N.v &.-.-.:.R d -.<.:.",
"<.d O s./.W.%.<.>.:.4.| <.<.1.-.5.I 3 # M.=Xl.A.H.Z._.3Xm.A.u [ 6.-.R y a $ A jX{.* 3 o o O . . X : . n.&Xz.= l :.=.:.[ d <.:.>.",
"h y o N.^.h...>.>.5.:.;.:.>.<.-.T d @ I.!.XX/ 8.4.:.~ U.,X#XG.> 3 > $ < n P.v.nX(.).I.S.F.K.I.I.I.G.G.`.iXl.V a :.6.5.T f 4.:.:.",
"h : $ t.;XB.| l k :.:.:.5.-.>.z w : I.`.PXH.>.5.:.-.:.) m.5Xv.C.P.D.I.b.B.c.vXSXSXzX3X1X1X1X:X<X<X:X#XrXtXc.F j g h f d h :.=.l ",
": , b C.yXI.,.f l -.>.:.<.5.f e X b T.jXr.4.5.5.:.>.-.;.) M.#XoX/.v.].jXBX<XoX@X).W.l.).).m.{.).^.iXZXZXDXE.S , u f d i g y d d ",
"J M s.|.zX~ u d -.:.>.:.] z w   G.(.<XS...9.-.<.:.:.>.{ #.E s.,XtX&X|.I.K.a.) %.| 5.>.<.1.<.4.} A.)._.HXGX<XC.C X h l Y U 3 o > ",
"B.R.E.2X6XJ u y <.-.:.:.y I r x.:XgXD...{ *.>.:.-.<.:.0.{ 9.P B.yX1X{...>.9.9.#.7.-.-.-.:.4.} <.z v N.E.BXvXm.I.A.M % & & # n A ",
"IXjX$XaX~.J j d >.>.:.=.e 2 A BXsXs.5.,.9.#.:.6.,.-.<.[ ,.=.3.K.E.MXU.E 2.{ { 9.1.>.>.:.:.<.9.5.5.l 7 M.W.iX2X/.M.t.I.I.t.G.b.Q.",
"f.H.).FXB.J e f 5.[ p u 6 Q gXv.H...-.;.>.>.:.:.:.:.>.:.:.:.6.# N.2X).P :.-.-.:.:.:.>.:.:.:.:.,.5.5.w - n.W.DXpXtXFXeXgXMXHXvXeX",
"0.:.Y.pXW., p k s i U q # OXwXH.e. .-.-.<.>.:.<.:.>.:.:.:.:.:.r P.~.#XA ,.:.:.-.:.:.:.:.<.:.-.5.>.T z 6 C U.yXSXuXpXbXfX&XR.].).",
"9.8.C.yX#XN 7 w p t 6 $ i.jXr.{ :.:.:.:.:.5.:.>.<.R z f -.>.-.0 _ Q.;XJ.:.-.:.<.-.<.:.:.-.:.:.7.z s 0 = N.W.NX^.T.!._.{.{.n.) | ",
"5.t A.c.MXj.G.< % - M g.hXJ.E <.-.,.<.:.:.:.:.:.<.:.-.d d d f 7 n.%XrXG.E :.=.y w :.:.>.-.>.h U 3 $ Q {.fXqX.X X).D. .;.<.:.4.| ",
"6.g > I.^.MXB.C.s.F.y.yXl.K a ,.2.>.:.5.>.:.>.:.<.:.<.<.L j r # h.NXlXb.n Y d d w :.:.-.<.z I 9 , ! }.;XBX'.}.F./ 2.<.<.5.4.:.:.",
"w.u y 8 V.R.bXgX,XgXtXtXs.4 d -.-.:.<.<.4.>.:.<.<.<.:.-.i w . D.#Xk.BX X~ > f y y ;.;.-.u u 3 1 H |.!.HX;X!.I.Z #.:.:.<.:.>.:.>.",
":.T e p 1 v U.^.tXGXAXrXD.4 g r <.<.<.:.<.:.5.<.:.<.<.[ s : M c.*X^ j.fXQ.m 9 y y I I f k : > c ).].$XaX_.z.; g :.-.:.5.<.>.:.:.",
"=.h l Y 7 , S }.CXlXaXaXZ.m O u l :.<.:.:.<.:.:.:.5.T d r - M.BX~ -.V.#Xv.M.N & &     < * ; S Z.Q.;XFXiX[.d.> d :.:.4.:.<.:.6.:.",
"h h d , . , A.k.zXt.y.yX%Xz.) < u -.:.<.<.:.<.<.<.f d g - I.#XOX9.-.R S.j.6Xl.U.U.U.U.).l.k.'.3XcXuXFXwX}.A e z -.[ ] :.<.:.:.R ",
"7 : , O , b.$XBXD ,.K b.nXlXm.$ t f :.<.<.5.6.R j f i < G.#XFXo.:.:.4.R ~ T.pXGXvXpXFXxXXXH.) ( W A _.6X).< k <.:.d d :.:.:.k j ",
"1 2 * ! l.DXJXXX| #.,.= v.pX`.= f d d =.6.-.h u 0 w @ ! k.CXx.5.:.4.:.2.J ^ c.aXAX:Xg.o.[ q.:.;.f A _.2Xz.; f :.:.d T :.:.h y f ",
"n d.*XzXtX:Xs.E q.w.<.k a.&X%XK.; f d e d d e u t $ ) |.SX;XE :.:.:.:.l h   {.lXtXm.P l  .| 5.<.-.v ).6XM.n l 4.[ h ] 6.R g t k ",
"PX;XeXNXz.; z ,.:.:.[ u + K.3X).d.~ = * * $ , , c n.~.JXf.7.e.{ :.:.4.d U & /.IXv.dXMXh.m 3 e t w < b.PX).A.u T =.u d d z U 8 2 ",
"L.~ J.M.M.c y [ :.<.j y $ J.&XeX!.{.y.y.I.I.f.s.t.&XzXg.w.4.8.] T R T d r O E.6Xf...Q OXPXx.A.M > , G.2X!.b., j ] d d f q 2 , N ",
"w.:.@.V Y.T.n p R y d 3 M z.yXFXtXtX9X=X X5X*XW.wX>XA.4.4.,.;.a g p u U & n 1X~.) >.<.4.o.D :XKXu.B.z.<X<Xl.G 0 u g z & o - f.3X",
"6.:.{ J n j.@Xn u 8 , a.;XHXoX_.qX:XF.~ Q d.#XuXaXS.' <.:.<.<.9.:.:.z d % m.pXN...4.:.>.>.w.:.| H.XXcXZXaXk.C.< : > o + b &XcXJ.",
"<.<.8.#.3 B.BXs.6 $ b.>XfXx.V.n.sXx.5.,.z p N -XbX{.< d <.5.-.;.4.R j > P.$XSXI.8.:.:.5.>.;.:.<.9.U C :XSXnX_.n.A @ G G.-XgXA.3.",
"6.6.9.=.4 A.3X*Xs.n.fX#XF.P w i.IXt.,.| =.t t a.VXW.D.< t T >.=.T f t c j.JXDXz.| <.:.4.4. .7.4.<.&.d s.VXGXhXQ.).U.h.xXaXa.5.,.",
"6.:. .,.y B B.aXBX/.a.( { q.r h.2X/ >.X.>.g w.Y N.HXm.! . y f d u j q s.jXaXrXfXd.> w z k =.9.,.,.,.e H 6XoXv.-XmXpXAXbXS 7.:.5.",
"8.<.:.;.L A l.SXh._ 2.:.4.i > h.*X| :.>.<.<.>.-.G lXjX).F X , 3 q < < ^.MXi.( c.MXi.b > @.I L U p u x B  XS.| ) D oXtXh...4.:.5.",
"6.5.5.' u N v.MXS *.9.5.R t ; &Xh.4.:.<.<.5.5.<.J oXuXgX{.G.! n 4 a.M.9Xs.6.9.m $XGXxXXXS % 5 w x 7   d.6X%.,.q.;.C KX^ ] <.<.:.",
"h d k d q P.$Xv. .5.4.4.U i G PXJ.:.:.:.>.>.4.8.t D.aXuXfXfX(./.E.%XPXH.*.5.X.R C AXwXQ.).&X5XB.d.d.f.#XkXU -.[ 8.e }.K f :.6.<.",
"l y U t , b.PXs.,.5.| =.d r S gX( >.:.:.:.<.<.<.w n *X@X) ..g.kXHXAXv.z &.4.>.z b hXz._ 2.) n.N.hXBXJXtXOXv r f i J ).F.: :.<.:.",
"k z 0 2 n l.1X) >.,.:.=.f : n.v.7.<.<.-.:.<.;.R Y & ).p.6.4.2.#.d.7Xh.# -   I +.V }.G.E :.>.:.P s.x.SXGXuXeXd.- I y KXt.b k <.5.",
"2 3 @ A b.cXn.3.<.:.<.T i c /.a.0.=.l ] :.;.f 0 . m n.Q.T E ] U s B (.'.[.}.N.S a.Q.D.-.:.5.>.[ 4 A.rXDX,Xj.%XjXs.n p.j.S.@ y z ",
"* b I.M.*XeXA.<.:.>.<.a r ! fXC.V 0 7 q 9 O X O   U.*XB.C 4 q $ ; N.eXcX~.Q.}.}.$X'.G.:.<.<.<.T 3 ! aX*XU.N.J.b.z.*Xh.wXb.A.< , ",
"K.t.h.MXSX&XA.>.:.;.d d = f.iXT.n.a.D.A.! ! A.G.U.%XSXtX2X-X#X#X<XpXtXAXtXwX$XcXSXoXb.:.:.-.[ y ; :XuXs./ 5.e.~ G.y.#XBXz.n.i.a.",
"hXgXx.XX;X@Xf.J U f y + Q ~.SXaXsXyXcXvXlXxXNXiXFXtXFXeX&X%X$XOX%X;X;X-X<XwXnXAXSX;X).#.3.,.u 6 %XFX%X| } <.{ 9.p G C.'.6Xz.M.b.",
"( o.%.Y ^ 5X|.s.; $ . m h.yXiXk.W.Q.R.E.Q.W./.$XvXMX).S.A.H.L.A.P.D.D.G.b.M._.W.2XcX|.( <.` +.c HXAX^ :.<.>.4.>.t q A t.E.vXyXuX",
"7.5.] T J h.5XB.r.n.F.t.5Xv.h.G.H.A.! A.! H.C._.qXh.H.| { ;.;.{ ;.=.:.{ | ( F.).Q.uX#XA.@.U a F SXbX .:.:.<.=.d f , $ s./.uXqXa.",
"w.>.8.[ j > p.bX,X(.*X5Xa.) #.6.<.<.5.9.a @ I.`.4XP.9.5.5.5.5.6.5.>.>.5.9.T U Q M.xXFXN.q O = oXSXf.8.{ :.d d w a . : K.4Xx.( :.",
"T U d i p 9 n k.ZXrXT.B.6 } :.5.:.8.<.,.y ^ ).cXE.o.1.,.,.;.:.:.<.4.6.:.R d q = r.jXtXj.! V.i.zX@X/ 5.:.d u u d X O M 5XB.! p k ",
", % $ @ * = M z.ZXnX(.U.. h <.5.:.4.6.<.< S.;XtXB.4.<.:.6.5.<.<.=.l f d y z q ; n.lXtXwXh.'.5Xv.( <.:.] d w q 3 & @ IX~.C.A 8 > ",
"+X*XkXfXgXlXiXDXFXSXaX2XH L ,.6.<.<.4.k C *XuX2XH.5.:.<.<.>.<.<.=.h z f y i $ N U.FXZXrXQ.|.) / <.<.6.u d y : > D vXgX/.j.h.h.j."
};
