/* XPM */
static char *_de1ca3ff22346248a0728ba94c2144ag6xQfK0yjd9eKtt5[] = {
/* columns rows colors chars-per-pixel */
"64 64 230 2 ",
"   c #68381A",
".  c #723D1D",
"X  c #6D3B23",
"o  c #6C3D29",
"O  c #723D25",
"+  c #743E2A",
"@  c #70372C",
"#  c #743F35",
"$  c #6F3A32",
"%  c #6C411F",
"&  c #71431E",
"*  c #6E4022",
"=  c #6D402B",
"-  c #734325",
";  c #7B4725",
":  c #7A4A25",
">  c #74432C",
",  c #7A442C",
"<  c #764A2B",
"1  c #7C4B2D",
"2  c #7E502B",
"3  c #6F4030",
"4  c #744332",
"5  c #7A4633",
"6  c #7C4A34",
"7  c #7D4B3B",
"8  c #774839",
"9  c #7E5133",
"0  c #7C513A",
"q  c #814E2E",
"w  c #80522C",
"e  c #814C34",
"r  c #824C3C",
"t  c #814634",
"y  c #845334",
"u  c #895435",
"i  c #845933",
"p  c #84533B",
"a  c #8A553B",
"s  c #8C5B3B",
"d  c #8D5B36",
"f  c #915E3D",
"g  c #8D613D",
"h  c #8D6233",
"j  c #93623D",
"k  c #946A3A",
"l  c #855342",
"z  c #8B5643",
"x  c #8C5B43",
"c  c #8E5B49",
"v  c #885746",
"b  c #925D43",
"n  c #945D4A",
"m  c #8F6143",
"M  c #8F614A",
"N  c #946244",
"B  c #996445",
"V  c #976A44",
"C  c #996D45",
"Z  c #95634B",
"A  c #9B654B",
"S  c #9B6A4C",
"D  c #976B48",
"F  c #9F714E",
"G  c #9F7145",
"H  c #956452",
"J  c #9A6552",
"K  c #9C6B53",
"L  c #9F6F58",
"P  c #9E7154",
"I  c #A16C4E",
"U  c #A4744D",
"Y  c #A9764F",
"T  c #A26D53",
"R  c #A26D5A",
"E  c #A86E56",
"W  c #A37353",
"Q  c #AA7556",
"!  c #A77C54",
"~  c #AC7C55",
"^  c #A5745A",
"/  c #A9745C",
"(  c #AC7B5B",
")  c #B27C5D",
"_  c #B37857",
"`  c #A47462",
"'  c #AA7562",
"]  c #AD7B62",
"[  c #AB7B68",
"{  c #B17D66",
"}  c #B27E69",
"|  c #B67E71",
" . c #AE8156",
".. c #AE815A",
"X. c #B4835D",
"o. c #B9855F",
"O. c #B4885B",
"+. c #BB915F",
"@. c #AE8160",
"#. c #B48463",
"$. c #BA8565",
"%. c #B68A64",
"&. c #BB8B66",
"*. c #B5836B",
"=. c #BB856B",
"-. c #B7896D",
";. c #BD8B6B",
":. c #BD9266",
">. c #BE9169",
",. c #BC8574",
"<. c #BD8B73",
"1. c #BE8C7A",
"2. c #B78675",
"3. c #BD9172",
"4. c #C38D66",
"5. c #C38D6C",
"6. c #CA8C6B",
"7. c #C18469",
"8. c #C49165",
"9. c #C4926C",
"0. c #CA936D",
"q. c #CC996E",
"w. c #C79567",
"e. c #D09D6E",
"r. c #C38D73",
"t. c #CB8D74",
"y. c #C58E79",
"u. c #C98B77",
"i. c #C59274",
"p. c #CA9574",
"a. c #C69976",
"s. c #CC9A74",
"d. c #C5947A",
"f. c #CB957B",
"g. c #CD9B7B",
"h. c #C6997C",
"j. c #D19C75",
"k. c #D2957C",
"l. c #D29D7C",
"z. c #D29671",
"x. c #CCA274",
"c. c #CDA17D",
"v. c #D3A376",
"b. c #D3A976",
"n. c #D4A37B",
"m. c #D9A67D",
"M. c #D6AA7C",
"N. c #DAAB7D",
"B. c #DAAB77",
"V. c #DBB17E",
"C. c #E0AD7E",
"Z. c #CC9A82",
"A. c #CB9684",
"S. c #D29E83",
"D. c #D39986",
"F. c #D5A483",
"G. c #D9A682",
"H. c #D6AA82",
"J. c #DBAC83",
"K. c #D6A58C",
"L. c #DAA68B",
"P. c #DCAC8A",
"I. c #D7A88A",
"U. c #DEB283",
"Y. c #DEB18B",
"T. c #DEB390",
"R. c #D2A988",
"E. c #E1A687",
"W. c #E1AD84",
"Q. c #E1AE8C",
"!. c #E2B484",
"~. c #E4B986",
"^. c #E3B48B",
"/. c #EAB58C",
"(. c #E5BB8B",
"). c #EABC8D",
"_. c #EAB981",
"`. c #F1BE8F",
"'. c #E2AC92",
"]. c #E5B594",
"[. c #EAB693",
"{. c #E6BB91",
"}. c #EBBC94",
"|. c #E6B69C",
" X c #ECBC9B",
".X c #E5BA9A",
"XX c #F1BD95",
"oX c #F1BD9C",
"OX c #F0B799",
"+X c #EFBCA1",
"@X c #F3BDA1",
"#X c #ECC38D",
"$X c #EEC98C",
"%X c #EAC687",
"&X c #F1C58E",
"*X c #F2CC8E",
"=X c #F8C98B",
"-X c #EDC493",
";X c #EECA92",
":X c #EEC39A",
">X c #EFCC9B",
",X c #F1C594",
"<X c #F9C694",
"1X c #F4CC95",
"2X c #F9CC95",
"3X c #F3C59C",
"4X c #F9C79D",
"5X c #F6CD99",
"6X c #F4CC9A",
"7X c #FACD9B",
"8X c #F5D196",
"9X c #FAD295",
"0X c #F6D19A",
"qX c #FBD19C",
"wX c #F5D28E",
"eX c #EEC1A1",
"rX c #F4C4A3",
"tX c #F9C5A3",
"yX c #F6CBA1",
"uX c #FBCCA3",
"iX c #FDCDA9",
"pX c #F5C7AB",
"aX c #FDD3A3",
"sX c #FFDBA6",
"dX c #FED3AB",
"fX c #FFD8AD",
"gX c #F6D2A6",
"hX c #FFCEB3",
"jX c #FFD3B1",
"kX c #FFDAB1",
/* pixels */
"eXXX X.X;.a < d.}.qX5X( g.!.5X,XJ.j.1 9.7XU P.qX0X8XqX8XqX5X1X5X1X8X#XM.J.p.5 r.=Xf.> kX9X8X1X0X0X~.U.n.0.p.) uX<Xq.4.o.$.S s 9.",
"8X1X6X1X1X:XM.v N }.<Xu 9.P.J.N.G.-.X.}.&.Z.V.<X1X1X<X1X,X1X6X1X;X;X6XJ.M.| f C.r.& 1X6X8X1X>X1X;XJ.m.6.k.w 7Xv.5.r.w >X;X5X1X1X",
"8X8X6X1X5X/.J.2.+ I.tX+ f.s.v.M.s.> 7.uXy P.W.8X;X1X0X1X1X1X1X2X1X7XN.J.l.8 $.<XT dX8X2X1X8X1XqXN.m.q.0.t.U.,X4.6.; yX6X1XqX1X1X",
"1X>X6X1X6XM.J.*.> }.W.e + - T 5.;.n 4.[.p.l.N.M.-X6X,X1X1X,X).V.M.M.N.q.f.5 OXp.K 5X1X1X1X1X1X).N.J.0.0.y fXuX5.k.tXsX1X1XqX1X1X",
"*X1X>X1XN.J.9.+ o.2X<XF.S.f.y./ b y.^.N.5.i.p.p.p.s.s.j.f.l.g.g.5.i.p.k., G.P.T P.2X5X1X6X4X-XJ.J.s.5.B ^.q.7X0.=.uX6X8X1X7X,X1X",
"$X6X6X).J.i.q.a 3X1X!.=.R 5.XX/.9.s.7X1Xg.e d S Z x p 1 5 , + , 5 1 7 5 ( 7X;.O !.~.1X7X,XU.J.P.m.w.=.f.[.q.`.m.] 0X>X1X1X-X1X1X",
"8X8X-Xm.q.p.7 U.2XJ.^ 7 3.] o x ;.Y.-XaX1X2X8X}.W.].U.W.N.).!.[./.}.3X4XaX2Xr.7 U.U.J.J.J.H.J.W.l.l.Q }.N a.S.C.| 3X-X*X5XH.{.8X",
"1XN.J.q.d.> s.oX1.O :X;X8X*XqX4XyX-.9   9 v M S R K ^ <.o.4X9.S p r l v # n '.Z 1.Q.N.J.J.J.v.p.$.Z /.f aX&.&.qX<.^.^.1X!.!.M.8X",
"!.G.p.k.- 9.iX=.> yX8X*X1X1X8X1X1X1X6X6X6XyXyXT.J.p.$.U 5.jX* 3.yXyXyX6X(.c *.5.# g.M.W.n.w.6.&.L uXx 5X2XaX%.qXd.F.J.J.W.m.G.N.",
"j.i.<., c.{.-.F 5X1X8X8X5X4X1X1X1XwXwX1XwX1XwXgX!.p.5.N ].F.:X-X-X1X1X*X$X].1 [.X z g.i.p.g.$.S ,X3.sX4X1X1Xj ,X9.0 d.f.0.4.0.W.",
"4.7 0 H.F.' C 6X6X6X>X6X1X1X1X;X>X6X6X>X>X1X8X-X_.4.p.{ uX2 yX1X8X1X1X;X1XN.- '.q.8 4 z p X ^ J.iXO.gX$X6X1Xd.:X{.] O 5.p.4.0.6.",
"A.3X4XN.O ^.1X1X6X1X1X6X1X8X1X8X8X#XM.U.5X1X1X8X&X5.Z.5.6XC ;X1X8X1X#X5X1X1X&., oXv.*.i.5.W.i. X* 6X8X6X8X5X^.C iX6.r.t.' Z t p ",
"A x Y.q.5 H.1X1X6X6X8X1X1X1X1X1X1XqXH.J.J.!.1XaX!.p.b P.n.U.6X8X$X8Xb.:X1X-Xa.( T 4Xn.U.aX7Xj.iX#.U.0X6X1X2X~.G.u z.6.0.6.t.o./.",
"H.o I.W., I.,XqX8X1X1X6X8X1X6X1X5X1X3XM.J.H.J.J.M.s.t uX( fX1X;X6X;XN.M.aX).G.i.B aXj ..9.;.f.}.;.Y.N.U.W.V.N.l.R aX}.4.w.@XD.n ",
"0Xo d.<XA |.H.0X1X1X1X1X1X1X1X1X1X1X,X-Xm.m.l.J.J.S ;.uX- 1X*X1X;X1X{.J.N.(.J.s.H.6XP.S ; W S.uX> ] g.p.p.f.$.O W 7X4Xv.l.x A 4X",
"wX7 =.7X2.-.V.-X1X1X1X8X1X6X8X;X5X1X8X1XM.n.4.l.p.t P.U.D 0X1X8X8X8X6Xm.J.U.x.*.rX}.2  XuXdXI :.pXZ.u t q J ] l.uX6.7.r.q dX0X*X",
"wXd.7 {.;.X U.J.-X6X1X1X<X8X1X1X1X6X;X>X(.J.w.0.7.r.7XK gX0X1X1X1X1X6XJ.P.P.w.7 <X2.J.6X1X5XqXI.2 ;.i.3XyXqX7Xq.p.p.6 ( ;X0X5X1X",
";XY.> >.Y.*.( J.J.J.m.W.^.#X-X,X1X;X-X-XU.U.v.4.e i.4XN 1X1X1X6X6X1X6XU.J.e.r.5.>.9 7X*X,X1XqXN.H.^.g./ 5.iX&.f.u a.;X8X0X6X1X1X",
";Xb.Z K uXa.> 9.J.M.J.W.M.M.H.M.H.H.U.U.J.J.n.4.+ 5. X>X1X1X1X6X6X;X6X~.J.8.n ).*.6X1X1X1X<X1Xb.,X!.i.} ;.S.N D  X0X;X$X1X5X6X1X",
"6Xb.a.3 3XN.#.5 T <.i.g.i.g.g.g.F.F.G.G.j.p.6.s.l U.#.yX1X5X1X1X1X1X6X}.W.s., 4X= $X1X1X1X8X1X,X<X!.9.J i.s F yX0X1X8X1X1X;X1X1X",
"5XN.3.$ ^.=X2X!.a.;.( Z s a a p 4 $ 7 c R ` l e <.dXg ;X;X;X;X6X6X1X;XaXQ.f.~ g.F.$X0X1X,X7X<X1X6XM.o.  k.6 N.6X*X1X7X!.N.0X1X1X",
"4X^.Z.> -X<XP.i.9.x.G. XiX3XuX).,X-X'.a.W ^ ;.7.N.uX( pX8X8X8X1X1X8X;X6XW.A.9.r.fX;X1X1X1X1X1X*XyXH.j.t G.n U.3X1X1X,XN.U.6X6X1X",
"-XJ.] Z uX#.> p p 0 4 = > 5 [ i.G.3X(.9.W.uXn.n.<X<X>.5 :X6X1X*X1X1X8X(.W.} ^.r.yX*X1X0X&X5X2X&XM.W.;.' G.] ~.6X*X<X-XM.).1X1X8X",
"M.s.Z { I.9 uX1X$X$X8X8X8XfXH.Z X x Z ; $.r.A z i.n. Xp #.H.1X;X$X0X(.N.l.} 4X5.W.~.C.W.W.N.C.j.s.0.a f.l.R !.4X8X8X6XN.6X6X1X1X",
"J.5.t 2.9.{.$X0X6X6X6X6X6X1X;X;XN.q.] i.OX& gXaX@.  a. Xp ^ U.J.J.J.n.s.d.4 3Xr.O Q r.f.r.d.r.d.p.p.n U.s.n M.5X*X8X-XM.5X5X1X1X",
"m.r.4 f.&.dX7XU.1X1X1X1X1X5X5XN.G.7.Q ;.#.aXaX1X6XdX  r.+X, ^ d.A.3.H > > -.4X[.r.t./ E A I E ( S a #.qXp.n M.(.2XqXU.B.-X1X7X$X",
"w.p.> f.~ fX~.B.6X8X1X;X8X1XN.G.9.A 5.oX! }.1X6X1X5XjX> r.@Xx - 5 r ` ;.W.%X*X9XqX2XXX^.E.W.XXuX4X`.5X6Xg.5 g.N.J.M.J.N.).!.M.M.",
"p./ p oX: (.Y.(.1X6X5X5X~.M.s.k.I W.;.; 3X#X$X7X1X1X1X-Xs S :X-XqX_.4.i.7.n 7 5 8 p x K ^ ^ y Z o.`.;X;XG.> i.H.J.J.m.J.N.N.N.p.",
"s 6 3.jXN P.J.-X;X8X5X).M.J.s.B l.9.g uX1X1X1X1X1X1X1X2X4XN ;.5Xm.y.6 >.rX1X<X1X8X$X1X1X1X1X8XA.O $.).-XaXe X g.p.n.n.s.6.5.i.r.",
"r.5.^.).I.J.H.5X1X1X7Xm.J.p.U ,XP.Z -X$X1X1X5X1X1X7X1X1X1XT.= s.}.} gX;X1XaX1X2X-X6X1X6X6X6XyX1XH.z r.m.2X{ + 7 r / { ] J p > > ",
"o.@.pXq.H.M.G.0XqX1XJ.G.f.: dX%.U ,X1X5X1X8X1X5X1X<X1X2X1X5X@.s +X;.eX8X1X1X1X1X1X1X1X6X1X1X<X;X,XJ.S R 4.1X-Xi.u.;.$.r.r.l.XX7X",
"uXs iX8.F.!.N.U.U.M.J.4.d tX&...1X5X1X1X1X1X1X1X1X1X1X1X1X0Xc.p d.>.-.;XwX6X1X1X5X1X1X1X1X1X1X;XqXv.d.z ,.aX8X$X0X<X7X<X4XXXg.g.",
"#X< ^.v.;.v.N.J.J.J.p.g.i.H...:X0X9X1X0X5X1X5X1X1X6X6X1X5X4XH.e -.}.x 6X1X6X1X6X1X1X1X1X1X6X6X<XU.U.p.=.b /.7X7X_.v.q.5.9.;.1 ^.",
";X< P.7XX r.w.s.5.s.i.i  X% uX3X1X1X1X1X1X1X1X1X#Xb.N.U.{.(./.K 2.XX> 4X1X6X6X~.1X1X1X1X6X,X6XN.!.p.( V B.!.7.6.t.T 1 e N eXaX&X",
"!.A.^ /.f.7 z p.j.A b rXX U.#X$X8X>X1X1X1X0X8X1X1XaX#XM.J.J.&.+ g.uXz J.1XU.H.J.2X1X1X1X6XM.U.q.g.t r.tXE.d.i.6 c.1X8X8X$X9X8X8X",
"B.F.K T XXv.5.v H 9.2X^ ;.N.1X1X8X;X5X1X1X1X1X1X1X1X0XV.J.g.] T iXaX,.B U.J.J.N.5X1X6X6XG.W.p.f.t p.W.uXd.i.* yX-X1X6X1X1X1X5X1X",
"U.H.S.i.b g.4XqXuX0X7X7 P.M.J.1X1X8X8X6X1X6X1X1X1X1X,X!.M.p.5 g.) {.4.+ 1.J.J.M.!.~.W.B.W.w.0.b f.p.<Xm.=.O P.5X$X6X1X6X1X7X6X*X",
"-XU.P.q.p., <.2X9X1X:XX f.H.J.).;X;X1X8X1X1X1X1X1XaX^.^.i.j g.:.fX1 oXf.- i.g.Q.N.l.m.g.r.y.A =.y.j.7X5.R i.U.qX2X1X2X1X1X1X<X1X",
"C.J.J.0.9.( *.3X(.c.rX( 5 ;.n.J.5X0X1X6X1X6X1X1X7X!.m.g.f.6 gXx.5X-X] }.7.- W ;.$.Q K A b , *.i.XX4XqX5.4 n.M.1X5X1X1X2X1X1X0X-X",
"J.l.0.0.f.1 i.#X9 5 b.}.f.> 9.M.~.;X1X1X1X1X1X1Xb.M.P.5.5 g. .-X;X6X( | oX4.r.f.f.u.7.t.j.[.uX).^.).4Xk.5 H.!.,X-XB.1X5X5X5X~.N.",
"0.j.;.6.W }.3XU 5XfXi [.qXr.d.P.H.).6X1X7X6X!.J.J.P.g.> G.yXaX;X;X8X5XJ., ^.5X1X3XqXw.i -XyXdX;X<.=.XX] W W.1X6XJ.M.1X8X6XM.J.M.",
"k.( i v.tX Xw 5X$XaXF.q 3XZ.a a.J.M.J.3X3XJ.J.M.H.F.- s.3XV ).;X;X1X6XJ.G.( 3X1X&.@.sX0XqX8X*X(.#.;.XX{ R J.1X>XH.Y.1X0XU.J.J.j.",
"O.:XuX7X%.S yX*X1X2Xm.*.T tX- r.p.J.M.N.W.M.N.M.f.- ;.3X .aX5X1X1X6XN.(.k.p N.7X..^ ].U.{.<X<XaXg.x iXu.p P.1X;XJ.J.).M.W.N.P.w.",
"q.^.yXo.a.F.5X8X1X$Xm.S.8 g.i.- p i.s.i.p.9.5.f.> i.uXh aXqX6X6X5X5XM.n.p.e }.w..XrX( u p.P.n.J.H.O @X6.5 N.U.>XM.H.U.H.E.k.s.$.",
"iXf.t D.6 l.B.7X5XM.W.a.1 s.uXc.d.A.<.[ H z r [  X). .yX6X6XU.v.M.V.M.m.p.{ Q.- 6XsX .Q iXo.w ;.r.1 k.e.l p.N.V.H.m.H.8.w.0.q [.",
"&X5XI.+ S.e G.N.N.J.8.s ) 3X1X=X6Xn.Q h.Q.[./.3X>.!.1X;X1X8XU.(.T.H.P.G.( W.F.#.1X1X;X0X6X! %.rXd.$.n.<Xy.f ;.J.W.M.q.0.p.E oXU ",
"=X1X^.4.*.L.B G.F.A.a g.uXG.;.c.}.1 |.A.< o.7X=X7 H.*X5X1X1X5X1X6XJ.U.j.q 4X&.3X1X8X1X;XqX-XuXx.U 3X<X1Xl.5 [ p.v.p.g.%.s.uXU #X",
"1X1X1Xn.> ].;.g.Q f ].I.< d.> eXP 6X;X%XJ.h.M 2X2.b M.6X1X1X-XqX~.U.p.- g.6X( yX1X1X1X1X1X1X6X>X#XJ.g aX=X&.J O Z u j {.^.M.aX=X",
"1X6X5XJ.a g.iXi $. XX.s yX^.> hX1 1X8X1Xb.J.;.i.M.> Z.m.N.!.!.N.N.W.f.{ 6X;Xa.c.-X4X,X1X;X6X8X;X6XJ.u H.7XuXp.&.r.H.:X3XN.#X6X1X",
"<X6XyXJ.=.( ,XtXr.X I.1X;XN.a rX! 1X6X5XV.$XM.o 1X#.@ 4.G.J.N.N.N.s., H.yXM.rX1 9.M.m.!.-X6X0X*X5XJ.7.F.G.j v.2X7XaXaXk -X3X;X1X",
"1X;X6XB.2.T 6XS ].:XqX1XV.s.( P. X1X1X0X1X1X;XH.P.uXo.  { i.i.9.p.T *.[.W aXi  XJ.s X.q.Y.U.V.V.W.l.( S.; yXaX:XN yXZ (.0X5X1X1X",
",X-XJ.N.' ..:X@.yX8X1XU.J.9.i.( gX5X1X1X1X1X1XJ.w 7X}.a.A > , t X ] |.O.6X-XY.D qXaXrXi.d X.a.w.i.f., ^.! 1X%X1Xn.P.b U.*X*X1X1X",
"N.N.P.N.r ;.x.jX8X0X1XW.^.d.oXw 5X8X1X1X5X1X5XW.f <X4XrX[.g.p.;.9.3XX.1X*X8X6X( 1X:XL L >.'.<.; u a s.,X%.qX*X2XJ.u.5 Y.qX&X1X1X",
"C.U.n.5.# OX: yXwX1X6XW.j.z tX) 1X*X1X5X1X1X1XJ.f.X.G.jXaX(.k ^.}.g.F.m.).<XU.I.S.Z c.yXaXa.* *.:X#X1XT.B a.n.N.N.K.4 g.#X6X5X).",
"m.s.i.$.` P.x.5X1X;X1XN.i.- f.iX5X1X1X1XqX5X(.J.p.f %.yX6X7XyXtXq } 1 7.i.j.G.Z.g.p 5X6X1X;X-X^ s -X1X6X2X/.Y p.E.*.^ 6 J.qX1XN.",
"4.f.K - .X^ 6X1X;X1X).J.g.U s  X#X-X#X,X4X~.v.4.;.Z } P.&X$XV.J.&.d.=.i.t._ s u f.5 5X1X8X;X5Xg.^ G.1XY.i.l.oXT d.j &., Z.J.M.N.",
"=.6 > 9.>X* 0X;X1X1XN.P.=.n.y G.n.g.n.s.7.i.i.a.O d.F.*.P.g.r.i.. J.XXq.7.r.8.9.E., 4X1X8X1X).j.U tXH.S o > X Z L.4.3Xl 4 1.g.p.",
"n I.dX&XY.  uX1X7XM.P.p.- ,XS./ b a t 1 < 1 s K ^.7X1X=X7X7X6X7XaX1X1X1XqXtX6X1Xm./ 5X1X;X#XJ.i.~.4Xi kX1X1XgX-.$ 5.^.f.8 7 4 4 ",
"4X#.x J.F.+ g.J.W.J.p.( ( qX3X6X4XyXyXyX4X4XaX6X1XqX).n.j.g.v.s.v.l.v.J./.uX6X$X!.r.>X8X6XN.j.F ,X).dX9X;X*X&X!.i.8 i.g.r.W L ;.",
"U.7X:Xb '.*.6 <.2.i.r., [.dX2.;.=.r.r.;.;.;.7.1XiXr.9 * 2 y 6 < < * - > H r.=.J.uX9.! aX$XJ.<.aX7Xh 5X*X6X0X7XM.n.^ 6 i.aX6XuXtX",
"7XqX5Xm.u Q.i.b O 5 B '.( : ! #.a.G.F.s.*.5 { ^.( g.:X;X1X;X;X1X1X8X1X3XuXT O r.,XXX- H.N.v.S aXqXaX0X1X5XV.M.W.s.i.4 i.,Xx.! ,X",
"=X,X-Xv.n.s [.J.9.i.L.> %.gX;X1X1X1X1X!.a.> ;. X  1X1X%X1X1X8X*X*X*X1X1X,XH.T r N.#XK K.p.g.d 0X:.2X,X1XN.J.J.N.w.i.X Z.D &.6XaX",
"W.M.J.m.f.i.I 7X7X4./ g.:X6X;X1X1X1X0XV.' ( ).p.a.6X1X1X6X6X6X;X1X6X2X3XM.m.f.O J.5X;.e B .  X).x.5X1XU.J.m.G.w.z.p.) 1.> Q.J.N.",
"p.=.{ ) A z b ,X1X[.;.;.m.1X1X1X6X6X,Xg.b '.*X*.aX1X1X5X6X6X;XU.B.b.N.J.J.q.g.5 (.1X4XG.f.=.;.fXaX5X~.N.Q.j.0.z._ uX4.5 7 t.p.j."
};
